<svg width="72" height="54" viewBox="0 0 72 36" fill="none" xmlns="http://www.w3.org/2000/svg">
<path d="M52.8225 16.35C52.5925 15.95 52.1625 15.71 51.7025 15.71C51.2425 15.71 50.8125 15.95 50.5725 16.35C50.5125 16.46 50.4725 16.57 50.4425 16.68H46.5025V12.88C46.5025 12.73 46.4525 12.59 46.3425 12.48L46.1225 12.26L47.0525 10.64H49.8925C49.9225 10.76 49.9725 10.87 50.0325 10.97C50.2625 11.37 50.6925 11.62 51.1525 11.62C51.6125 11.62 52.0425 11.37 52.2725 10.97C52.5025 10.57 52.5025 10.08 52.2725 9.67998C52.0425 9.27998 51.6125 9.02998 51.1525 9.02998C50.6925 9.02998 50.2625 9.27998 50.0325 9.67998C49.9725 9.77998 49.9225 9.88998 49.8925 9.99998H46.6825L45.6525 11.78L45.5725 11.7L42.2125 8.34998L43.8925 5.45998H46.3425C46.3725 5.57998 46.4225 5.68998 46.4825 5.78998C46.7125 6.18998 47.1425 6.42998 47.6025 6.42998C48.0625 6.42998 48.4925 6.18998 48.7225 5.78998C48.9525 5.38998 48.9525 4.89998 48.7225 4.49998C48.4925 4.09998 48.0625 3.84998 47.6025 3.84998C47.1425 3.84998 46.7125 4.09998 46.4825 4.49998C46.4225 4.59998 46.3725 4.70998 46.3425 4.81998H43.5225L41.7425 7.87998L41.7225 7.85998L40.5125 6.65998C40.4125 6.54998 40.2625 6.49998 40.1225 6.49998H31.8825C31.7425 6.49998 31.5925 6.54998 31.4825 6.65998L30.2525 7.88998L28.4725 4.81998H25.6525C25.6225 4.70998 25.5825 4.59998 25.5225 4.49998C25.2825 4.09998 24.8625 3.84998 24.3925 3.84998C23.9225 3.84998 23.5025 4.09998 23.2725 4.49998C23.0425 4.89998 23.0425 5.38998 23.2725 5.78998C23.5025 6.18998 23.9325 6.42998 24.3925 6.42998C24.8525 6.42998 25.2825 6.18998 25.5225 5.78998C25.5825 5.68998 25.6225 5.57998 25.6525 5.45998H28.1025L29.7825 8.35998L26.4325 11.7L26.3425 11.79L25.3125 9.99998H22.1025C22.0725 9.88998 22.0225 9.77998 21.9625 9.67998C21.7325 9.27998 21.3025 9.02998 20.8425 9.02998C20.3825 9.02998 19.9525 9.27998 19.7225 9.67998C19.4925 10.08 19.4925 10.57 19.7225 10.97C19.9525 11.37 20.3825 11.62 20.8425 11.62C21.3025 11.62 21.7325 11.37 21.9625 10.97C22.0225 10.87 22.0725 10.76 22.1025 10.64H24.9425L25.8825 12.26L25.6625 12.48C25.5525 12.59 25.5025 12.73 25.5025 12.88V16.68H21.5525C21.5225 16.57 21.4825 16.46 21.4225 16.35C21.1825 15.95 20.7625 15.71 20.2925 15.71C19.8225 15.71 19.4025 15.95 19.1725 16.35C18.9425 16.75 18.9425 17.24 19.1725 17.64C19.4025 18.04 19.8325 18.29 20.2925 18.29C20.7525 18.29 21.1825 18.04 21.4225 17.64C21.4825 17.54 21.5225 17.43 21.5525 17.32H25.5025V21.11C25.5025 21.26 25.5525 21.4 25.6625 21.52L25.8825 21.74L24.9425 23.35H22.1025C22.0725 23.24 22.0225 23.13 21.9625 23.03C21.7325 22.63 21.3025 22.38 20.8425 22.38C20.3825 22.38 19.9525 22.63 19.7225 23.03C19.4925 23.43 19.4925 23.92 19.7225 24.32C19.9525 24.72 20.3825 24.97 20.8425 24.97C21.3025 24.97 21.7325 24.72 21.9625 24.32C22.0225 24.22 22.0725 24.11 22.1025 23.99H25.3125L26.3525 22.21L26.4325 22.29L29.7825 25.63L28.1025 28.53H25.6525C25.6225 28.42 25.5825 28.31 25.5225 28.21C25.2825 27.81 24.8625 27.56 24.3925 27.56C23.9225 27.56 23.5025 27.81 23.2725 28.21C23.0425 28.61 23.0425 29.1 23.2725 29.5C23.5025 29.9 23.9325 30.15 24.3925 30.15C24.8525 30.15 25.2825 29.9 25.5225 29.5C25.5825 29.4 25.6225 29.29 25.6525 29.17H28.4725L30.2525 26.1L31.4825 27.33C31.5925 27.44 31.7425 27.5 31.8825 27.5H40.1225C40.2625 27.5 40.4125 27.44 40.5125 27.33L41.7425 26.11L43.5225 29.17H46.3425C46.3725 29.29 46.4225 29.4 46.4825 29.5C46.7125 29.9 47.1425 30.15 47.6025 30.15C48.0625 30.15 48.4925 29.9 48.7225 29.5C48.9525 29.1 48.9525 28.61 48.7225 28.21C48.4925 27.81 48.0625 27.56 47.6025 27.56C47.1425 27.56 46.7125 27.81 46.4825 28.21C46.4225 28.31 46.3725 28.42 46.3425 28.53H43.8925L42.2125 25.64L45.5725 22.29L45.6525 22.21L46.6825 23.99H49.8925C49.9225 24.11 49.9725 24.22 50.0325 24.32C50.2625 24.72 50.6925 24.97 51.1525 24.97C51.6125 24.97 52.0425 24.72 52.2725 24.32C52.5025 23.92 52.5025 23.43 52.2725 23.03C52.0425 22.63 51.6125 22.38 51.1525 22.38C50.6925 22.38 50.2625 22.63 50.0325 23.03C49.9725 23.13 49.9225 23.24 49.8925 23.35H47.0525L46.1225 21.74L46.3425 21.52C46.4525 21.4 46.5025 21.26 46.5025 21.11V17.32H50.4425C50.4725 17.43 50.5125 17.54 50.5725 17.64C50.8125 18.04 51.2325 18.29 51.7025 18.29C52.1725 18.29 52.5925 18.04 52.8225 17.64C53.0525 17.24 53.0525 16.75 52.8225 16.35ZM50.7025 10.07C50.7925 9.90998 50.9725 9.80998 51.1525 9.80998C51.3325 9.80998 51.5125 9.90998 51.6025 10.07C51.6925 10.22 51.6925 10.42 51.6025 10.58C51.5125 10.74 51.3325 10.84 51.1525 10.84C50.9725 10.84 50.7925 10.74 50.7025 10.58C50.6125 10.42 50.6125 10.22 50.7025 10.07ZM47.1525 4.88998C47.2425 4.72998 47.4125 4.62998 47.6025 4.62998C47.7825 4.62998 47.9525 4.72998 48.0525 4.88998C48.1425 5.03998 48.1425 5.23998 48.0525 5.39998C47.9525 5.55998 47.7825 5.65998 47.6025 5.65998C47.4125 5.65998 47.2425 5.55998 47.1525 5.39998C47.0625 5.23998 47.0625 5.03998 47.1525 4.88998ZM24.8425 5.39998C24.7525 5.55998 24.5825 5.65998 24.3925 5.65998C24.2125 5.65998 24.0425 5.55998 23.9425 5.39998C23.8525 5.23998 23.8525 5.03998 23.9425 4.88998C24.0425 4.72998 24.2125 4.62998 24.3925 4.62998C24.5825 4.62998 24.7525 4.72998 24.8425 4.88998C24.9325 5.03998 24.9325 5.23998 24.8425 5.39998ZM21.2925 10.58C21.2025 10.74 21.0225 10.84 20.8425 10.84C20.6625 10.84 20.4925 10.74 20.3925 10.58C20.3025 10.42 20.3025 10.22 20.3925 10.07C20.4925 9.90998 20.6625 9.80998 20.8425 9.80998C21.0225 9.80998 21.2025 9.90998 21.2925 10.07C21.3825 10.22 21.3825 10.42 21.2925 10.58ZM20.7425 17.26C20.6525 17.41 20.4825 17.51 20.2925 17.51C20.1125 17.51 19.9425 17.41 19.8425 17.26C19.7525 17.1 19.7525 16.9 19.8425 16.74C19.9425 16.58 20.1125 16.48 20.2925 16.48C20.4825 16.48 20.6525 16.58 20.7425 16.74C20.8325 16.9 20.8325 17.1 20.7425 17.26ZM21.2925 23.93C21.2025 24.09 21.0225 24.19 20.8425 24.19C20.6625 24.19 20.4925 24.09 20.3925 23.93C20.3025 23.77 20.3025 23.57 20.3925 23.42C20.4925 23.26 20.6625 23.16 20.8425 23.16C21.0225 23.16 21.2025 23.26 21.2925 23.42C21.3825 23.57 21.3825 23.77 21.2925 23.93ZM24.8425 29.11C24.7525 29.27 24.5825 29.37 24.3925 29.37C24.2125 29.37 24.0425 29.27 23.9425 29.11C23.8525 28.95 23.8525 28.75 23.9425 28.6C24.0425 28.44 24.2125 28.34 24.3925 28.34C24.5825 28.34 24.7525 28.44 24.8425 28.6C24.9325 28.75 24.9325 28.95 24.8425 29.11ZM47.1525 28.6C47.2425 28.44 47.4125 28.34 47.6025 28.34C47.7825 28.34 47.9525 28.44 48.0525 28.6C48.1425 28.75 48.1425 28.95 48.0525 29.11C47.9525 29.27 47.7825 29.37 47.6025 29.37C47.4125 29.37 47.2425 29.27 47.1525 29.11C47.0625 28.95 47.0625 28.75 47.1525 28.6ZM50.7025 23.42C50.7925 23.26 50.9725 23.16 51.1525 23.16C51.3325 23.16 51.5125 23.26 51.6025 23.42C51.6925 23.57 51.6925 23.77 51.6025 23.93C51.5125 24.09 51.3325 24.19 51.1525 24.19C50.9725 24.19 50.7925 24.09 50.7025 23.93C50.6125 23.77 50.6125 23.57 50.7025 23.42ZM45.3725 20.45V20.88L45.0625 21.2L44.9825 21.28L41.6225 24.62L41.6025 24.64L41.1525 25.09L41.1325 25.11L39.8825 26.37H32.1125L30.8625 25.11L30.8425 25.09L30.3725 24.62L26.9425 21.19L26.6325 20.88V13.12L26.9325 12.81L27.0225 12.72L30.3625 9.36998L30.8325 8.89998L32.1125 7.61998H39.8825L41.1625 8.89998L41.6325 9.36998L44.9825 12.72L45.0625 12.8L45.3725 13.12V20.45ZM52.1525 17.26C52.0525 17.41 51.8825 17.51 51.7025 17.51C51.5125 17.51 51.3425 17.41 51.2525 17.26C51.1625 17.1 51.1625 16.9 51.2525 16.74C51.3425 16.58 51.5125 16.48 51.7025 16.48C51.8825 16.48 52.0525 16.58 52.1525 16.74C52.2425 16.9 52.2425 17.1 52.1525 17.26Z" fill="#0F5A83"/>
<path d="M41.7325 31.41C41.6125 31.41 41.4925 31.43 41.3825 31.46L39.7225 28.61H32.2725L30.6125 31.46C30.5025 31.43 30.3825 31.41 30.2625 31.41C29.8025 31.41 29.3725 31.66 29.1425 32.06C28.9125 32.46 28.9125 32.95 29.1425 33.35C29.3725 33.75 29.8025 34 30.2625 34C30.7225 34 31.1625 33.75 31.3925 33.35C31.6225 32.95 31.6225 32.46 31.3925 32.06C31.3325 31.96 31.2525 31.86 31.1725 31.78L32.6425 29.25H39.3525L40.8225 31.78C40.7425 31.86 40.6625 31.96 40.6025 32.06C40.3725 32.46 40.3725 32.95 40.6025 33.35C40.8325 33.75 41.2625 34 41.7325 34C42.2025 34 42.6225 33.75 42.8525 33.35C43.0825 32.95 43.0825 32.46 42.8525 32.06C42.6225 31.66 42.1925 31.41 41.7325 31.41ZM30.7125 32.96C30.6225 33.12 30.4525 33.22 30.2625 33.22C30.0825 33.22 29.9125 33.12 29.8225 32.96C29.7325 32.8 29.7325 32.61 29.8225 32.45C29.9125 32.29 30.0825 32.19 30.2625 32.19C30.4525 32.19 30.6225 32.29 30.7125 32.45C30.8025 32.61 30.8025 32.8 30.7125 32.96ZM42.1725 32.96C42.0825 33.12 41.9125 33.22 41.7325 33.22C41.5425 33.22 41.3725 33.12 41.2825 32.96C41.1925 32.8 41.1925 32.61 41.2825 32.45C41.3725 32.29 41.5425 32.19 41.7325 32.19C41.9125 32.19 42.0825 32.29 42.1725 32.45C42.2725 32.61 42.2725 32.8 42.1725 32.96Z" fill="#0F5A83"/>
<path d="M30.2625 2.58C30.3825 2.58 30.5025 2.57 30.6125 2.53L32.2725 5.39H39.7225L41.3825 2.53C41.4925 2.57 41.6125 2.58 41.7325 2.58C42.1925 2.58 42.6225 2.34 42.8525 1.94C43.0825 1.54 43.0825 1.04 42.8525 0.64C42.6225 0.24 42.1925 0 41.7325 0C41.2725 0 40.8325 0.24 40.6025 0.64C40.3725 1.04 40.3725 1.54 40.6025 1.94C40.6625 2.04 40.7425 2.13 40.8225 2.21L39.3525 4.75H32.6425L31.1725 2.21C31.2525 2.13 31.3325 2.04 31.3925 1.94C31.6225 1.54 31.6225 1.04 31.3925 0.64C31.1625 0.24 30.7325 0 30.2625 0C29.7925 0 29.3725 0.24 29.1425 0.64C28.9125 1.04 28.9125 1.54 29.1425 1.94C29.3725 2.34 29.8025 2.58 30.2625 2.58ZM41.2825 1.03C41.3725 0.87 41.5425 0.78 41.7325 0.78C41.9125 0.78 42.0825 0.87 42.1725 1.03C42.2725 1.19 42.2725 1.39 42.1725 1.55C42.0825 1.71 41.9125 1.8 41.7325 1.8C41.5425 1.8 41.3725 1.71 41.2825 1.55C41.1925 1.39 41.1925 1.19 41.2825 1.03ZM29.8225 1.03C29.9125 0.87 30.0825 0.78 30.2625 0.78C30.4525 0.78 30.6225 0.87 30.7125 1.03C30.8025 1.19 30.8025 1.39 30.7125 1.55C30.6225 1.71 30.4525 1.8 30.2625 1.8C30.0825 1.8 29.9125 1.71 29.8225 1.55C29.7325 1.39 29.7325 1.19 29.8225 1.03Z" fill="#0F5A83"/>
<path d="M36.5325 24.5V24.48H36.5025L36.5325 24.5Z" fill="#0F5A83"/>
<path d="M43.5025 13.72L43.4625 13.64C43.4625 13.64 43.4125 13.55 43.3825 13.51C43.2125 13.18 43.0025 12.87 42.7725 12.58C42.6825 12.46 42.5925 12.36 42.4925 12.26C42.1225 11.83 41.6925 11.43 41.2325 11.08C41.1425 11.02 41.0325 10.95 40.9325 10.88C40.6025 10.67 40.2725 10.47 39.9325 10.31C39.8525 10.26 39.7725 10.23 39.6925 10.19C39.2225 9.97 38.7225 9.79 38.2325 9.67C38.2025 9.66 38.1825 9.66 38.1525 9.65C37.9225 9.58 37.6825 9.53 37.4225 9.5H36.5325V24.48H36.5725C36.9125 24.45 37.2525 24.4 37.5925 24.33C37.7725 24.3 37.9425 24.26 38.1125 24.22C38.6325 24.1 39.1525 23.91 39.6525 23.69C39.9325 23.57 40.2125 23.43 40.4525 23.27C40.6925 23.12 40.9525 22.96 41.1925 22.77C41.5625 22.52 41.9225 22.21 42.2125 21.89C42.4025 21.71 42.5725 21.5 42.7325 21.29C42.9425 21.03 43.1225 20.77 43.2725 20.52L43.3025 20.49L43.3325 20.46H41.3825C41.3825 20.46 41.3625 20.48 41.3625 20.49C41.2725 20.6 41.2025 20.68 41.1225 20.77C40.7725 21.17 40.3625 21.52 39.9125 21.83C39.8225 21.89 39.7325 21.95 39.6125 22.02C39.1725 22.29 38.6925 22.52 38.1825 22.67V17.83H42.7225V17.77C42.7425 17.62 42.7525 17.47 42.7625 17.32C42.7725 17.2 42.7725 17.07 42.7725 16.95C42.7725 16.86 42.7725 16.77 42.7625 16.68C42.7525 16.58 42.7425 16.48 42.7325 16.39V16.34H38.1825V11.22C38.6925 11.39 39.1725 11.6 39.6125 11.88C39.8425 12.02 40.0625 12.17 40.2825 12.34C40.5825 12.58 40.8825 12.84 41.1225 13.12C41.2425 13.24 41.3525 13.37 41.4625 13.51C41.5125 13.57 41.5625 13.63 41.6025 13.69V13.72H43.5025Z" fill="#0F5A83"/>
<path d="M35.4825 24.5L35.5025 24.48H35.4825V24.5Z" fill="#0F5A83"/>
<path d="M35.4825 23.69V9.5H34.6825C34.4625 9.55 34.2425 9.6 34.0425 9.65C34.0225 9.65 33.9925 9.65 33.9725 9.67C33.5225 9.79 33.0925 9.97 32.6625 10.19C32.5925 10.23 32.5125 10.26 32.4425 10.31C32.1325 10.47 31.8225 10.67 31.5425 10.88C31.4525 10.95 31.3525 11.02 31.2725 11.08C30.8525 11.43 30.4725 11.83 30.1325 12.24C30.0525 12.34 29.9725 12.45 29.8825 12.57C29.6725 12.87 29.4825 13.19 29.3225 13.51C29.3025 13.55 29.2825 13.58 29.2625 13.62C29.1825 13.8 29.1025 13.97 29.0325 14.15C28.9125 14.43 28.8225 14.71 28.7525 15C28.6125 15.45 28.5525 15.91 28.5125 16.38C28.5025 16.47 28.5025 16.57 28.5025 16.68V16.93C28.5025 17.06 28.5025 17.19 28.5125 17.32C28.5225 17.47 28.5325 17.62 28.5525 17.76C28.6025 18.24 28.7025 18.71 28.8325 19.14C28.9025 19.38 28.9825 19.62 29.0825 19.85C29.1725 20.07 29.2725 20.28 29.3925 20.49C29.3925 20.5 29.3925 20.51 29.4025 20.52C29.5525 20.77 29.7025 21.03 29.8825 21.29C30.0225 21.5 30.1825 21.71 30.3525 21.89C30.6325 22.22 30.9325 22.52 31.2725 22.79C31.4925 22.96 31.7225 23.14 31.9425 23.27C32.1725 23.43 32.4025 23.57 32.6625 23.69C33.1125 23.91 33.5725 24.08 34.0425 24.22C34.1925 24.26 34.3525 24.3 34.5125 24.33C34.8125 24.4 35.1125 24.45 35.4325 24.48H35.4825V23.69ZM33.9925 19.85V22.67C33.5425 22.5 33.1125 22.29 32.7125 22.02C32.6225 21.96 32.5225 21.89 32.4425 21.83C32.0425 21.52 31.6725 21.17 31.3525 20.77C31.2825 20.68 31.2125 20.59 31.1425 20.49C31.1425 20.48 31.1325 20.47 31.1225 20.46C30.9825 20.26 30.8525 20.06 30.7425 19.85C30.6025 19.61 30.4825 19.36 30.3825 19.1C30.2025 18.65 30.0825 18.21 30.0325 17.74C30.0125 17.6 30.0025 17.46 29.9925 17.32C29.9925 17.19 29.9925 17.06 29.9925 16.93V16.46H30.0325V16.41C30.0825 15.95 30.1625 15.5 30.3125 15.05C30.4125 14.74 30.5425 14.44 30.6925 14.15C30.7725 13.99 30.8525 13.84 30.9425 13.69C30.9825 13.63 31.0125 13.57 31.0625 13.51C31.1525 13.37 31.2525 13.23 31.3625 13.1C31.5825 12.83 31.8325 12.57 32.1125 12.33C32.3125 12.15 32.5025 12 32.7225 11.86C33.1225 11.58 33.5525 11.36 34.0025 11.21V19.85H33.9925Z" fill="#0F5A83"/>
</svg>
