<svg width="72" height="54" viewBox="0 0 72 54" fill="none" xmlns="http://www.w3.org/2000/svg">
<path d="M24.9406 53.7568C25.0013 53.7568 25.0619 53.7568 25.1327 53.7203C25.1934 53.696 25.2541 53.6595 25.2946 53.6231C25.3451 53.5744 25.3856 53.5258 25.4159 53.465C25.4463 53.4042 25.4564 53.3313 25.4564 53.2462C25.4564 53.1489 25.4362 53.0516 25.3957 52.9787C25.3552 52.8936 25.3047 52.8207 25.2339 52.7599C25.1631 52.6991 25.0923 52.6261 25.0114 52.5775C24.9305 52.5167 24.8394 52.4559 24.7585 52.4073C24.6675 52.3465 24.5866 52.2857 24.5057 52.2249C24.4248 52.1641 24.3439 52.0912 24.2832 52.0061C24.2124 51.921 24.1618 51.8359 24.1214 51.7386C24.0809 51.6414 24.0607 51.5319 24.0607 51.3982C24.0607 51.2645 24.0809 51.155 24.1113 51.0456C24.1517 50.9362 24.2023 50.8389 24.2731 50.766C24.3439 50.693 24.4349 50.6201 24.536 50.5836C24.6372 50.5472 24.7585 50.5107 24.89 50.5107C25.0114 50.5107 25.1226 50.5228 25.2137 50.5593C25.3047 50.5958 25.3957 50.6444 25.4665 50.7052C25.5373 50.766 25.598 50.8511 25.6485 50.9484C25.6991 51.0456 25.7396 51.155 25.7699 51.2766L25.5474 51.4104C25.5171 51.3131 25.4867 51.2158 25.4463 51.1307C25.4058 51.0456 25.3552 50.9727 25.3047 50.9119C25.2541 50.8511 25.1833 50.8025 25.1125 50.766C25.0417 50.7295 24.9608 50.7174 24.8698 50.7174C24.7889 50.7174 24.7181 50.7295 24.6574 50.766C24.5967 50.8025 24.5461 50.8389 24.5057 50.8876C24.4652 50.9362 24.4349 50.9848 24.4147 51.0456C24.3944 51.1064 24.3843 51.1672 24.3843 51.228C24.3843 51.3131 24.4046 51.3982 24.445 51.4711C24.4855 51.5441 24.536 51.617 24.6068 51.6778C24.6776 51.7386 24.7484 51.7994 24.8394 51.8602C24.9305 51.921 25.0114 51.9818 25.1024 52.0426C25.1934 52.1033 25.2845 52.1641 25.3654 52.2371C25.4564 52.2979 25.5272 52.383 25.598 52.4559C25.6688 52.5289 25.7193 52.6261 25.7598 52.7234C25.8003 52.8207 25.8205 52.9301 25.8205 53.0395C25.8205 53.1732 25.8003 53.2948 25.7598 53.4164C25.7193 53.538 25.6688 53.6352 25.5879 53.7203C25.507 53.8054 25.4159 53.8784 25.3047 53.927C25.1934 53.9756 25.0518 54 24.9102 54C24.7889 54 24.6776 53.9878 24.5765 53.9513C24.4753 53.9149 24.3944 53.8662 24.3236 53.7933C24.2528 53.7203 24.182 53.6474 24.1315 53.5501C24.0809 53.4529 24.0405 53.3434 24 53.2219L24.2326 53.1003C24.263 53.2097 24.2933 53.307 24.3439 53.3921C24.3944 53.4772 24.445 53.5501 24.5057 53.6109C24.5664 53.6717 24.6372 53.7203 24.708 53.7446C24.7788 53.7811 24.8597 53.7933 24.9406 53.7933V53.7568Z" fill="white"/>
<path d="M27.3375 53.9513C27.1858 53.9513 27.0442 53.9148 26.9229 53.8541C26.8015 53.7933 26.6902 53.696 26.5891 53.5744C26.4981 53.4528 26.4273 53.3191 26.3767 53.1611C26.3261 53.003 26.2958 52.8328 26.2958 52.6504C26.2958 52.4681 26.3261 52.2857 26.3767 52.1155C26.4273 51.9453 26.4981 51.7994 26.5891 51.6778C26.6801 51.5562 26.7914 51.459 26.9229 51.386C27.0543 51.3131 27.1858 51.2766 27.3375 51.2766C27.4892 51.2766 27.6308 51.3131 27.7522 51.3739C27.8837 51.4347 27.9848 51.5319 28.0859 51.6413C28.177 51.7508 28.2478 51.8845 28.2983 52.0426C28.3489 52.2006 28.3792 52.3587 28.3792 52.541C28.3792 52.7355 28.3489 52.9179 28.2983 53.0881C28.2478 53.2583 28.177 53.4164 28.0859 53.538C27.9949 53.6717 27.8837 53.7689 27.7522 53.8419C27.6308 53.9148 27.4892 53.9513 27.3375 53.9513ZM27.4083 53.7568C27.4892 53.7568 27.56 53.7325 27.6207 53.6838C27.6814 53.6352 27.7421 53.5623 27.7926 53.4772C27.8331 53.3921 27.8736 53.2826 27.9039 53.1732C27.9342 53.0638 27.9444 52.9301 27.9444 52.8085C27.9444 52.6261 27.9342 52.4438 27.9039 52.2857C27.8837 52.1277 27.8432 51.9818 27.7825 51.8602C27.7218 51.7386 27.6511 51.6413 27.5701 51.5806C27.4791 51.5076 27.378 51.4711 27.2465 51.4711C27.1757 51.4711 27.115 51.4954 27.0543 51.5441C26.9937 51.5927 26.933 51.6657 26.8925 51.7508C26.842 51.8359 26.8116 51.9331 26.7813 52.0547C26.7509 52.1641 26.7408 52.2979 26.7408 52.4194C26.7408 52.6018 26.7509 52.7842 26.7813 52.9422C26.8116 53.1124 26.8521 53.2462 26.9127 53.3677C26.9734 53.4893 27.0442 53.5866 27.1251 53.6595C27.206 53.7325 27.3072 53.7689 27.4184 53.7689L27.4083 53.7568Z" fill="white"/>
<path d="M29.7547 50.1945C29.7547 50.1945 29.6738 50.2067 29.6334 50.2432C29.5929 50.2796 29.5727 50.3161 29.5424 50.3647C29.5221 50.4134 29.5019 50.462 29.4817 50.5349C29.4716 50.5957 29.4614 50.6565 29.4614 50.7295V51.3374H29.9874V51.5562H29.4614V53.9148H29.067V51.5562H28.6523V51.3374H29.067V51.0334C29.067 50.8875 29.0872 50.7659 29.1277 50.6322C29.1681 50.5106 29.2187 50.4012 29.2895 50.3039C29.3603 50.2067 29.4311 50.1459 29.5221 50.0851C29.6132 50.0365 29.7042 50 29.8053 50C29.8761 50 29.9469 50 30.0076 50.0365C30.0683 50.0608 30.129 50.0973 30.1896 50.1337C30.2503 50.1702 30.2908 50.231 30.3413 50.2918C30.3818 50.3526 30.4223 50.4255 30.4425 50.4985L30.1593 50.7659C30.1492 50.693 30.129 50.6322 30.1087 50.5593C30.0885 50.4863 30.0683 50.4255 30.0379 50.3769C30.0076 50.3283 29.9671 50.2796 29.9267 50.2432C29.8862 50.2067 29.8255 50.1945 29.7547 50.1945Z" fill="white"/>
<path d="M30.7762 50.4376H30.8875V51.3129H31.3325V51.5318H30.8875V53.3433C30.8875 53.3433 30.8875 53.4162 30.9077 53.4527C30.9279 53.4892 30.938 53.5135 30.9482 53.5378C30.9684 53.5621 30.9886 53.5864 31.019 53.5986C31.0493 53.6108 31.0695 53.6229 31.0999 53.6229C31.1403 53.6229 31.1808 53.6108 31.2212 53.5743C31.2617 53.55 31.292 53.5135 31.3123 53.4649L31.4134 53.55C31.3628 53.6715 31.292 53.7688 31.201 53.8296C31.11 53.8904 31.0088 53.9269 30.8774 53.9269C30.8167 53.9269 30.756 53.9147 30.7054 53.8782C30.6549 53.8539 30.6144 53.8053 30.5841 53.7566C30.5537 53.708 30.5335 53.6351 30.5133 53.5621C30.493 53.4892 30.493 53.4041 30.493 53.319V51.5075H30.1492V51.4102L30.493 51.2886V50.5592L30.7762 50.4133V50.4376Z" fill="white"/>
<path d="M32.0303 51.3129L32.6574 53.1974L33.2743 51.3129L33.9014 53.1974L34.4576 51.3129H34.6498L33.8407 53.9147H33.7092L33.153 52.2369L32.5967 53.9147H32.4753L31.6056 51.3129H32.0303Z" fill="white"/>
<path d="M36.2478 53.8905C36.1972 53.8541 36.1568 53.8054 36.1163 53.7446C36.0759 53.6839 36.0658 53.6109 36.0658 53.538C36.0152 53.5866 35.9747 53.6352 35.9343 53.6839C35.8938 53.7325 35.8433 53.7811 35.7927 53.8176C35.7421 53.8541 35.6814 53.8905 35.6208 53.9149C35.5601 53.9392 35.4792 53.9513 35.3982 53.9513C35.3173 53.9513 35.2465 53.9392 35.1859 53.9027C35.1252 53.8662 35.0746 53.8298 35.024 53.769C34.9836 53.7082 34.9431 53.6474 34.9229 53.5623C34.9027 53.4893 34.8824 53.4042 34.8824 53.307C34.8824 53.1975 34.9027 53.1003 34.933 53.003C34.9634 52.9058 35.0139 52.8328 35.0746 52.7599C35.1353 52.6869 35.196 52.6261 35.2769 52.5775C35.3578 52.5289 35.4387 52.4802 35.5196 52.4316C35.6106 52.383 35.7017 52.3465 35.7927 52.3222C35.8837 52.2857 35.9747 52.2614 36.0658 52.2249V52.0669C36.0658 51.9453 36.0658 51.848 36.0455 51.7629C36.0354 51.6778 36.0152 51.617 35.9848 51.5684C35.9545 51.5198 35.9242 51.4833 35.8837 51.459C35.8433 51.4347 35.7927 51.4225 35.732 51.4225C35.6713 51.4225 35.6208 51.4347 35.5803 51.4711C35.5398 51.4955 35.4893 51.5319 35.4589 51.5806C35.4286 51.6292 35.3982 51.69 35.3679 51.7508C35.3477 51.8116 35.3275 51.8845 35.3275 51.9575H34.9634C34.9634 51.848 35.0038 51.7508 35.0544 51.6657C35.1049 51.5806 35.1656 51.5076 35.2364 51.4468C35.3072 51.386 35.3881 51.3374 35.4893 51.3131C35.5803 51.2766 35.6814 51.2645 35.7826 51.2645C35.9141 51.2645 36.0152 51.2766 36.1062 51.3131C36.1972 51.3496 36.268 51.386 36.3186 51.4468C36.3692 51.5076 36.4096 51.5806 36.4299 51.6657C36.4501 51.7508 36.4602 51.848 36.4602 51.9453V53.538C36.4602 53.6231 36.4804 53.6839 36.5108 53.7446C36.5512 53.8054 36.5917 53.8541 36.6422 53.8905H36.2478ZM36.0658 52.3951C36.0051 52.4195 35.9545 52.4438 35.8938 52.4802C35.8331 52.5167 35.7725 52.541 35.7118 52.5775C35.6511 52.614 35.6005 52.6504 35.55 52.6991C35.4994 52.7477 35.4488 52.7842 35.4084 52.845C35.3679 52.8936 35.3376 52.9422 35.3173 53.003C35.2971 53.0638 35.287 53.1124 35.287 53.1732C35.287 53.234 35.287 53.2948 35.3173 53.3556C35.3477 53.4164 35.3578 53.465 35.3881 53.5015C35.4185 53.538 35.4488 53.5744 35.4893 53.5988C35.5297 53.6231 35.5702 53.6352 35.6106 53.6352C35.6511 53.6352 35.6915 53.6352 35.732 53.6109C35.7725 53.5988 35.8129 53.5744 35.8433 53.5501C35.8837 53.5258 35.9141 53.4893 35.9545 53.465C35.995 53.4285 36.0253 53.3921 36.0658 53.3556V52.3951Z" fill="white"/>
<path d="M37.3704 51.2645H37.4311L37.4817 51.7872C37.512 51.7143 37.5525 51.6414 37.5929 51.5806C37.6435 51.5198 37.6941 51.459 37.7446 51.4104C37.8053 51.3617 37.8559 51.3253 37.9267 51.3009C37.9975 51.2766 38.048 51.2645 38.1188 51.2645C38.1795 51.2645 38.2301 51.2645 38.2908 51.3009C38.3515 51.3253 38.402 51.3496 38.4526 51.3982L38.3312 51.8237C38.3312 51.8237 38.2807 51.7629 38.2503 51.7386C38.22 51.7143 38.1896 51.7021 38.1593 51.69C38.129 51.69 38.0986 51.6657 38.0683 51.6657C38.0379 51.6657 38.0076 51.6657 37.9773 51.6657C37.9267 51.6657 37.8761 51.6657 37.8357 51.69C37.7851 51.7143 37.7446 51.7386 37.7042 51.7751C37.6637 51.8116 37.6233 51.8602 37.5828 51.9088C37.5424 51.9696 37.512 52.0304 37.4918 52.1034V53.9027H37.0974V51.4225L37.3805 51.2766L37.3704 51.2645Z" fill="white"/>
<path d="M39.5752 53.9513C39.4438 53.9513 39.3123 53.9149 39.201 53.8541C39.0898 53.7933 38.9785 53.696 38.8976 53.5866C38.8066 53.4772 38.7459 53.3434 38.6852 53.1854C38.6346 53.0395 38.6043 52.8693 38.6043 52.6991C38.6043 52.4924 38.6245 52.2979 38.6751 52.1277C38.7257 51.9575 38.7864 51.7994 38.8774 51.6778C38.9583 51.5441 39.0594 51.4468 39.1808 51.3739C39.3022 51.3009 39.4336 51.2645 39.5752 51.2645C39.7067 51.2645 39.818 51.3009 39.9292 51.3496C40.0405 51.4104 40.1315 51.4833 40.2124 51.5927C40.2933 51.7021 40.354 51.8116 40.3944 51.9453C40.4349 52.079 40.4551 52.2128 40.4551 52.3587H38.9785C38.9785 52.5289 38.9987 52.6869 39.0291 52.845C39.0594 52.9909 39.11 53.1246 39.1707 53.234C39.2314 53.3434 39.3022 53.4285 39.3932 53.4893C39.4842 53.5501 39.5752 53.5744 39.6764 53.5744C39.7573 53.5744 39.8382 53.5623 39.9191 53.5258C40 53.4893 40.0708 53.4407 40.1315 53.3799C40.1922 53.3191 40.2529 53.2583 40.2933 53.1732C40.3338 53.1003 40.3742 53.0152 40.3843 52.9422L40.4956 53.003C40.4652 53.1368 40.4248 53.2583 40.354 53.3799C40.2933 53.4893 40.2225 53.5988 40.1315 53.6839C40.0506 53.769 39.9596 53.8419 39.8584 53.8905C39.7573 53.9392 39.6561 53.9635 39.555 53.9635L39.5752 53.9513ZM39.9697 52.152C39.9697 52.0547 39.9596 51.9696 39.9292 51.8845C39.8989 51.7994 39.8685 51.7265 39.818 51.6657C39.7674 51.6049 39.7168 51.5563 39.6561 51.5198C39.5955 51.4833 39.5247 51.4711 39.4539 51.4711C39.3932 51.4711 39.3426 51.4833 39.2819 51.5198C39.2212 51.5563 39.1808 51.6049 39.1403 51.6657C39.0999 51.7265 39.0594 51.7994 39.0392 51.8845C39.0089 51.9696 38.9987 52.0547 38.9886 52.152H39.9697Z" fill="white"/>
<path d="M42.0329 50.3283C42.0329 50.3283 42.0329 50.2554 42.0531 50.2189C42.0632 50.1825 42.0834 50.1581 42.1037 50.1217C42.1239 50.0973 42.1441 50.073 42.1745 50.0609C42.2048 50.0487 42.225 50.0366 42.2554 50.0366C42.2857 50.0366 42.3161 50.0366 42.3464 50.0609C42.3767 50.073 42.397 50.0973 42.4172 50.1217C42.4374 50.146 42.4576 50.1825 42.4678 50.2189C42.4779 50.2554 42.488 50.2919 42.488 50.3283C42.488 50.3648 42.488 50.4013 42.4678 50.4378C42.4576 50.4742 42.4374 50.4986 42.4172 50.535C42.397 50.5593 42.3767 50.5837 42.3464 50.5958C42.3161 50.608 42.2958 50.6201 42.2554 50.6201C42.2149 50.6201 42.1947 50.6201 42.1745 50.5958C42.1441 50.5837 42.1239 50.5593 42.1037 50.535C42.0834 50.5107 42.0632 50.4742 42.0531 50.4378C42.043 50.4013 42.0329 50.3648 42.0329 50.3283ZM42.0632 51.4104L42.3363 51.2645H42.4475V53.8906H42.0531V51.4104H42.0632Z" fill="white"/>
<path d="M43.4589 51.2645H43.5702V51.7873C43.6915 51.6171 43.8129 51.4833 43.9444 51.3982C44.0759 51.3131 44.2073 51.2645 44.3388 51.2645C44.4096 51.2645 44.4703 51.2888 44.531 51.3253C44.5917 51.3617 44.6422 51.4225 44.6928 51.4955C44.7332 51.5684 44.7737 51.6535 44.804 51.7386C44.8344 51.8359 44.8445 51.9332 44.8445 52.0426V53.8905H44.4501V52.1277C44.4501 52.0426 44.4501 51.9696 44.4298 51.8967C44.4197 51.8359 44.3894 51.7751 44.3692 51.7386C44.3388 51.69 44.3085 51.6657 44.268 51.6414C44.2276 51.6171 44.1871 51.6049 44.1466 51.6049C44.1062 51.6049 44.0657 51.6049 44.0152 51.6292C43.9747 51.6535 43.9241 51.6778 43.8736 51.7022C43.823 51.7386 43.7724 51.7751 43.732 51.8237C43.6814 51.8724 43.641 51.921 43.5904 51.9696V53.8784H43.196V51.3982L43.4791 51.2523L43.4589 51.2645Z" fill="white"/>
<path d="M46.8268 52.0424C46.8167 51.9816 46.7965 51.9087 46.7661 51.8357C46.7459 51.7628 46.7156 51.702 46.6751 51.6533C46.6346 51.5926 46.5942 51.5561 46.5436 51.5196C46.493 51.4831 46.4324 51.471 46.3616 51.471C46.2705 51.471 46.1896 51.4953 46.1188 51.5439C46.048 51.5926 45.9874 51.6533 45.9368 51.7385C45.8862 51.8236 45.8559 51.9087 45.8255 52.0181C45.7952 52.1275 45.7851 52.2369 45.7851 52.3585C45.7851 52.5165 45.8053 52.6746 45.8356 52.8205C45.866 52.9664 45.9166 53.1001 45.9772 53.2095C46.0379 53.319 46.1087 53.4041 46.1896 53.477C46.2705 53.5378 46.3717 53.5743 46.4728 53.5743C46.5638 53.5743 46.6448 53.55 46.7156 53.5135C46.7863 53.477 46.8369 53.4284 46.8875 53.3676C46.9381 53.3068 46.9785 53.2339 47.019 53.1487C47.0594 53.0636 47.0898 52.9785 47.11 52.8813L47.2314 52.9421C47.201 53.1001 47.1504 53.246 47.0999 53.3797C47.0392 53.5135 46.9785 53.6107 46.8976 53.708C46.8167 53.7931 46.7358 53.8661 46.6448 53.9147C46.5436 53.9633 46.4425 53.9876 46.3312 53.9876C46.1997 53.9876 46.0784 53.9512 45.9671 53.8904C45.8559 53.8296 45.7547 53.7323 45.6738 53.6229C45.5929 53.5013 45.5221 53.3676 45.4716 53.2217C45.421 53.0636 45.4008 52.9056 45.4008 52.7232C45.4008 52.5895 45.4109 52.4679 45.4412 52.3463C45.4716 52.2248 45.5019 52.1153 45.5424 52.0059C45.5828 51.8965 45.6435 51.8114 45.7042 51.7263C45.7649 51.6412 45.8357 51.5682 45.9166 51.5075C45.9975 51.4467 46.0784 51.398 46.1593 51.3616C46.2402 51.3251 46.3413 51.3129 46.4324 51.3129C46.5133 51.3129 46.5841 51.3129 46.6549 51.3494C46.7257 51.3859 46.7965 51.4102 46.8571 51.4467C46.9178 51.4953 46.9684 51.5439 47.019 51.6047C47.0695 51.6655 47.0999 51.7384 47.1302 51.8114L46.847 52.0789L46.8268 52.0424Z" fill="white"/>
<path d="M47.7876 53.4406C47.7876 53.4406 47.8382 53.4406 47.8685 53.4649C47.8989 53.4771 47.9191 53.5014 47.9393 53.5257C47.9596 53.55 47.9697 53.5743 47.9798 53.6108C47.9899 53.6473 48 53.6716 48 53.7081C48 53.7446 48 53.781 47.9798 53.8175C47.9596 53.854 47.9494 53.8783 47.9393 53.9026C47.9191 53.9269 47.8989 53.9512 47.8685 53.9634C47.8382 53.9756 47.818 53.9877 47.7876 53.9877C47.7573 53.9877 47.7269 53.9877 47.7067 53.9634C47.6764 53.9512 47.6561 53.9269 47.6359 53.9026C47.6157 53.8783 47.6056 53.854 47.5955 53.8175C47.5853 53.781 47.5752 53.7567 47.5752 53.7081C47.5752 53.6716 47.5752 53.6351 47.5955 53.6108C47.6056 53.5743 47.6258 53.55 47.6359 53.5257C47.6561 53.5014 47.6764 53.4771 47.7067 53.4649C47.737 53.4528 47.7573 53.4406 47.7876 53.4406Z" fill="white"/>
<path d="M0 37.3082H2.59936C3.39917 37.3082 4.08723 37.3835 4.66356 37.5342C5.23989 37.6848 5.72017 37.9267 6.10439 38.2597C6.54349 38.6402 6.87283 39.0763 7.09238 39.5679C7.31585 40.0595 7.42759 40.5966 7.42759 41.1794C7.42759 41.7344 7.32762 42.2557 7.12767 42.7433C6.93163 43.2309 6.64151 43.6571 6.25729 44.0218C5.87699 44.3826 5.40456 44.668 4.83999 44.8781C4.27934 45.0882 3.63636 45.1933 2.91105 45.1933H0V37.3082ZM1.31144 44.6165H2.70522C3.14433 44.6165 3.55795 44.5431 3.94609 44.3964C4.33423 44.2498 4.6714 44.0317 4.95761 43.7423C5.24773 43.4529 5.47513 43.0981 5.63979 42.6779C5.80838 42.2537 5.89267 41.7641 5.89267 41.2091C5.89267 40.7215 5.81426 40.2755 5.65744 39.8712C5.50061 39.4628 5.28106 39.112 4.99878 38.8186C4.71649 38.5253 4.37932 38.2973 3.98726 38.1348C3.59912 37.9722 3.17373 37.891 2.7111 37.891H1.31144V44.6165Z" fill="white"/>
<path d="M12.9439 45.1933C12.7871 45.114 12.6538 45.003 12.544 44.8603C12.4381 44.7136 12.3852 44.5471 12.3852 44.3608C12.2441 44.4678 12.1049 44.5788 11.9677 44.6938C11.8344 44.8087 11.6873 44.9138 11.5266 45.0089C11.3698 45.1001 11.1933 45.1754 10.9973 45.2349C10.8052 45.2944 10.5817 45.3241 10.3269 45.3241C10.0916 45.3241 9.87797 45.2844 9.68586 45.2052C9.49767 45.1298 9.33693 45.0248 9.20363 44.89C9.07425 44.7552 8.97231 44.5946 8.89782 44.4083C8.82725 44.222 8.79196 44.0218 8.79196 43.8077C8.79196 43.5461 8.84293 43.3102 8.94487 43.1001C9.0468 42.89 9.18598 42.7037 9.36241 42.5411C9.54276 42.3746 9.75055 42.2279 9.98579 42.1011C10.221 41.9703 10.4719 41.8553 10.7385 41.7562C11.0051 41.6531 11.2796 41.5619 11.5619 41.4827C11.8442 41.4034 12.1186 41.33 12.3852 41.2626V40.8821C12.3852 40.6046 12.3656 40.3707 12.3264 40.1804C12.2872 39.9901 12.2264 39.8375 12.1441 39.7225C12.0617 39.6036 11.9559 39.5203 11.8265 39.4727C11.7011 39.4212 11.5501 39.3954 11.3737 39.3954C11.2051 39.3954 11.0502 39.4291 10.9091 39.4965C10.7679 39.5639 10.6425 39.6551 10.5327 39.7701C10.4269 39.8811 10.3386 40.0139 10.2681 40.1685C10.2014 40.3191 10.1563 40.4797 10.1328 40.6501H9.03896C9.07033 40.3885 9.15854 40.1546 9.3036 39.9485C9.45259 39.7423 9.63881 39.5699 9.86229 39.4311C10.0858 39.2884 10.3386 39.1794 10.6209 39.1041C10.9071 39.0287 11.2031 38.9911 11.5089 38.9911C11.901 38.9911 12.2303 39.0307 12.4969 39.11C12.7635 39.1853 12.9772 39.2924 13.138 39.4311C13.2987 39.5699 13.4124 39.7403 13.479 39.9425C13.5496 40.1407 13.5849 40.3608 13.5849 40.6026V44.3608C13.5849 44.5471 13.6378 44.7136 13.7437 44.8603C13.8535 45.003 13.9868 45.114 14.1436 45.1933H12.9439ZM12.3852 41.6492C12.2127 41.7047 12.0343 41.7681 11.85 41.8394C11.6658 41.9108 11.4854 41.9921 11.309 42.0833C11.1326 42.1705 10.964 42.2656 10.8032 42.3687C10.6425 42.4718 10.5013 42.5828 10.3798 42.7017C10.2583 42.8206 10.1622 42.9455 10.0916 43.0763C10.0211 43.2071 9.98579 43.3439 9.98579 43.4866C9.98579 43.6373 10.0132 43.78 10.0681 43.9148C10.123 44.0456 10.1955 44.1625 10.2857 44.2656C10.3759 44.3647 10.4798 44.444 10.5974 44.5035C10.715 44.559 10.8366 44.5867 10.962 44.5867C11.0953 44.5867 11.2227 44.5689 11.3443 44.5332C11.4658 44.4975 11.5834 44.45 11.6971 44.3905C11.8108 44.3271 11.9245 44.2557 12.0382 44.1764C12.1519 44.0971 12.2676 44.0119 12.3852 43.9207V41.6492Z" fill="white"/>
<path d="M16.79 37.0347H17.1311V39.1041H18.4719V39.6214H17.1311V43.9088C17.1311 44 17.1468 44.0852 17.1781 44.1645C17.2134 44.2438 17.2585 44.3132 17.3134 44.3726C17.3722 44.4321 17.4408 44.4797 17.5192 44.5154C17.5976 44.5471 17.6839 44.5629 17.778 44.5629C17.9113 44.5629 18.0328 44.5292 18.1426 44.4618C18.2524 44.3945 18.3484 44.3112 18.4308 44.2121L18.7307 44.4143C18.566 44.6957 18.3524 44.9177 18.0897 45.0803C17.827 45.2428 17.5016 45.3241 17.1135 45.3241C16.9135 45.3241 16.739 45.2884 16.5901 45.217C16.4411 45.1497 16.3176 45.0545 16.2196 44.9316C16.1255 44.8048 16.0549 44.6561 16.0078 44.4856C15.9608 44.3112 15.9373 44.1189 15.9373 43.9088V39.6214H14.8905V39.3954L15.9373 39.1041V37.3736L16.79 37.0347Z" fill="white"/>
<path d="M24.0588 45.1933C23.902 45.114 23.7687 45.003 23.6589 44.8603C23.5531 44.7136 23.5001 44.5471 23.5001 44.3608C23.359 44.4678 23.2198 44.5788 23.0826 44.6938C22.9493 44.8087 22.8023 44.9138 22.6415 45.0089C22.4847 45.1001 22.3083 45.1754 22.1122 45.2349C21.9201 45.2944 21.6966 45.3241 21.4418 45.3241C21.2066 45.3241 20.9929 45.2844 20.8008 45.2052C20.6126 45.1298 20.4519 45.0248 20.3186 44.89C20.1892 44.7552 20.0872 44.5946 20.0127 44.4083C19.9422 44.222 19.9069 44.0218 19.9069 43.8077C19.9069 43.5461 19.9579 43.3102 20.0598 43.1001C20.1617 42.89 20.3009 42.7037 20.4773 42.5411C20.6577 42.3746 20.8655 42.2279 21.1007 42.1011C21.3359 41.9703 21.5869 41.8553 21.8535 41.7562C22.1201 41.6531 22.3945 41.5619 22.6768 41.4827C22.9591 41.4034 23.2335 41.33 23.5001 41.2626V40.8821C23.5001 40.6046 23.4805 40.3707 23.4413 40.1804C23.4021 39.9901 23.3413 39.8375 23.259 39.7225C23.1767 39.6036 23.0708 39.5203 22.9414 39.4727C22.816 39.4212 22.665 39.3954 22.4886 39.3954C22.32 39.3954 22.1652 39.4291 22.024 39.4965C21.8829 39.5639 21.7574 39.6551 21.6476 39.7701C21.5418 39.8811 21.4536 40.0139 21.383 40.1685C21.3163 40.3191 21.2713 40.4797 21.2477 40.6501H20.1539C20.1852 40.3885 20.2735 40.1546 20.4185 39.9485C20.5675 39.7423 20.7537 39.5699 20.9772 39.4311C21.2007 39.2884 21.4536 39.1794 21.7358 39.1041C22.0221 39.0287 22.3181 38.9911 22.6239 38.9911C23.0159 38.9911 23.3453 39.0307 23.6119 39.11C23.8785 39.1853 24.0921 39.2924 24.2529 39.4311C24.4136 39.5699 24.5273 39.7403 24.594 39.9425C24.6645 40.1407 24.6998 40.3608 24.6998 40.6026V44.3608C24.6998 44.5471 24.7528 44.7136 24.8586 44.8603C24.9684 45.003 25.1017 45.114 25.2585 45.1933H24.0588ZM23.5001 41.6492C23.3276 41.7047 23.1492 41.7681 22.965 41.8394C22.7807 41.9108 22.6003 41.9921 22.4239 42.0833C22.2475 42.1705 22.0789 42.2656 21.9182 42.3687C21.7574 42.4718 21.6163 42.5828 21.4947 42.7017C21.3732 42.8206 21.2771 42.9455 21.2066 43.0763C21.136 43.2071 21.1007 43.3439 21.1007 43.4866C21.1007 43.6373 21.1282 43.78 21.183 43.9148C21.2379 44.0456 21.3105 44.1625 21.4006 44.2656C21.4908 44.3647 21.5947 44.444 21.7123 44.5035C21.8299 44.559 21.9515 44.5867 22.0769 44.5867C22.2102 44.5867 22.3377 44.5689 22.4592 44.5332C22.5807 44.4975 22.6984 44.45 22.8121 44.3905C22.9258 44.3271 23.0395 44.2557 23.1531 44.1764C23.2668 44.0971 23.3825 44.0119 23.5001 43.9207V41.6492Z" fill="white"/>
<path d="M35.0032 37.3082V37.8196H30.8924V40.6383H33.6447V41.1497H30.8924V44.6819H35.0032V45.1933H29.581V37.3082H35.0032Z" fill="white"/>
<path d="M37.7437 45.1933H36.544V36.3449L37.3967 36H37.7437V45.1933Z" fill="white"/>
<path d="M39.6491 46.6323C39.6962 46.6521 39.7471 46.6779 39.802 46.7096C39.8608 46.7413 39.9235 46.7711 39.9902 46.7988C40.0608 46.8305 40.1372 46.8563 40.2196 46.8761C40.3019 46.8959 40.394 46.9058 40.496 46.9058C40.6214 46.9058 40.739 46.8702 40.8488 46.7988C40.9586 46.7275 41.0586 46.6383 41.1487 46.5312C41.2389 46.4242 41.3193 46.3072 41.3899 46.1804C41.4604 46.0535 41.5192 45.9346 41.5663 45.8236L41.9721 44.9078L38.8964 39.1041H40.2548L42.5719 43.5045L44.4715 39.1041H45.1125L42.0368 46.2636C41.9074 46.561 41.7584 46.8186 41.5898 47.0367C41.4251 47.2547 41.2487 47.4351 41.0605 47.5778C40.8723 47.7205 40.6783 47.8256 40.4783 47.893C40.2784 47.9643 40.0843 48 39.8961 48C39.755 48 39.6177 47.9782 39.4844 47.9346C39.3511 47.891 39.2394 47.8335 39.1492 47.7621L39.6491 46.6323Z" fill="white"/>
<path d="M48.1 44.9019C48.2607 44.9019 48.4097 44.8781 48.5469 44.8305C48.6841 44.779 48.8018 44.7116 48.8998 44.6283C49.0017 44.5451 49.0801 44.45 49.135 44.3429C49.1899 44.2319 49.2174 44.1189 49.2174 44.004C49.2174 43.8176 49.1703 43.6551 49.0762 43.5164C48.986 43.3776 48.8645 43.2547 48.7116 43.1477C48.5626 43.0367 48.3921 42.9356 48.2 42.8444C48.0078 42.7532 47.8118 42.6601 47.6119 42.5649C47.4119 42.4658 47.2159 42.3627 47.0238 42.2557C46.8317 42.1447 46.6592 42.0159 46.5062 41.8692C46.3573 41.7225 46.2357 41.554 46.1416 41.3637C46.0515 41.1695 46.0064 40.9435 46.0064 40.6858C46.0064 40.444 46.0573 40.22 46.1593 40.0139C46.2612 39.8038 46.4024 39.6234 46.5827 39.4727C46.767 39.3221 46.9846 39.2052 47.2355 39.1219C47.4864 39.0347 47.7608 38.9911 48.0588 38.9911C48.2588 38.9911 48.445 39.005 48.6175 39.0327C48.79 39.0605 48.9586 39.114 49.1233 39.1933C49.2918 39.2725 49.4585 39.3875 49.6231 39.5382C49.7878 39.6848 49.9623 39.8771 50.1465 40.115L49.7055 40.5134C49.4781 40.1368 49.2232 39.8573 48.9409 39.6749C48.6626 39.4886 48.3646 39.3954 48.047 39.3954C47.8745 39.3954 47.7177 39.4172 47.5766 39.4609C47.4354 39.5005 47.3139 39.558 47.212 39.6333C47.1139 39.7047 47.0355 39.7899 46.9767 39.889C46.9218 39.9881 46.8944 40.0932 46.8944 40.2042C46.8944 40.3865 46.9434 40.5451 47.0414 40.6799C47.1433 40.8147 47.2766 40.9376 47.4413 41.0486C47.606 41.1556 47.7922 41.2547 48 41.3459C48.2117 41.4371 48.4254 41.5302 48.641 41.6254C48.8606 41.7205 49.0742 41.8236 49.282 41.9346C49.4938 42.0456 49.6819 42.1744 49.8466 42.3211C50.0113 42.4638 50.1426 42.6303 50.2406 42.8206C50.3426 43.0109 50.3935 43.2329 50.3935 43.4866C50.3935 43.7443 50.3465 43.9861 50.2524 44.2121C50.1583 44.4341 50.0152 44.6283 49.8231 44.7948C49.6349 44.9574 49.3977 45.0862 49.1115 45.1814C48.8253 45.2765 48.4881 45.3241 48.1 45.3241C47.9235 45.3241 47.7412 45.3102 47.5531 45.2825C47.3688 45.2547 47.1826 45.2012 46.9944 45.1219C46.8062 45.0387 46.618 44.9237 46.4298 44.777C46.2416 44.6303 46.0573 44.4381 45.877 44.2002L46.3651 43.7542C46.5102 43.9604 46.6494 44.1368 46.7826 44.2834C46.916 44.4262 47.0512 44.5451 47.1884 44.6402C47.3296 44.7314 47.4727 44.7988 47.6177 44.8424C47.7667 44.8821 47.9275 44.9019 48.1 44.9019Z" fill="white"/>
<path d="M52.1872 39.336L53.0282 38.9911H53.3752V45.1933H52.1872V39.336ZM52.0931 36.773C52.0931 36.6779 52.1108 36.5887 52.146 36.5055C52.1813 36.4222 52.2303 36.3489 52.2931 36.2854C52.3558 36.222 52.4283 36.1724 52.5107 36.1368C52.593 36.1011 52.6812 36.0833 52.7753 36.0833C52.8694 36.0833 52.9576 36.1011 53.0399 36.1368C53.1223 36.1724 53.1948 36.222 53.2575 36.2854C53.3203 36.3489 53.3693 36.4222 53.4046 36.5055C53.4398 36.5887 53.4575 36.6779 53.4575 36.773C53.4575 36.8682 53.4398 36.9574 53.4046 37.0406C53.3693 37.1239 53.3203 37.1972 53.2575 37.2607C53.1948 37.3241 53.1223 37.3736 53.0399 37.4093C52.9576 37.445 52.8694 37.4628 52.7753 37.4628C52.6812 37.4628 52.593 37.445 52.5107 37.4093C52.4283 37.3736 52.3558 37.3241 52.2931 37.2607C52.2303 37.1972 52.1813 37.1239 52.146 37.0406C52.1108 36.9574 52.0931 36.8682 52.0931 36.773Z" fill="white"/>
<path d="M56.7743 39.1041V43.439C56.7743 43.5897 56.8076 43.7324 56.8743 43.8672C56.9449 44.002 57.0409 44.1189 57.1625 44.218C57.284 44.3171 57.4232 44.3964 57.58 44.4559C57.7407 44.5114 57.9133 44.5391 58.0975 44.5391C58.2151 44.5391 58.3406 44.5134 58.4739 44.4618C58.6111 44.4103 58.7444 44.3409 58.8738 44.2537C59.0032 44.1625 59.1228 44.0575 59.2325 43.9386C59.3462 43.8157 59.4423 43.6868 59.5207 43.552V39.1041H60.7086V45.1933H59.5207V44.0515C59.4148 44.226 59.2815 44.3905 59.1208 44.5451C58.964 44.6997 58.7934 44.8345 58.6092 44.9495C58.4249 45.0644 58.2347 45.1556 58.0387 45.223C57.8427 45.2904 57.6565 45.3241 57.48 45.3241C57.2174 45.3241 56.9704 45.2745 56.739 45.1754C56.5077 45.0763 56.3058 44.9415 56.1333 44.7711C55.9608 44.6006 55.8236 44.4004 55.7216 44.1705C55.6236 43.9405 55.5746 43.6967 55.5746 43.439V39.1041H56.7743Z" fill="white"/>
<path d="M63.6903 38.9911H64.0314V40.2517C64.1843 40.0852 64.3568 39.9267 64.5489 39.776C64.741 39.6214 64.939 39.4866 65.1429 39.3717C65.3467 39.2527 65.5506 39.1596 65.7545 39.0922C65.9583 39.0248 66.1524 38.9911 66.3367 38.9911C66.5131 38.9911 66.6915 39.0228 66.8718 39.0862C67.0561 39.1497 67.2247 39.2389 67.3776 39.3538C67.5344 39.4688 67.6677 39.6056 67.7775 39.7641C67.8912 39.9187 67.9657 40.0892 68.001 40.2755C68.099 40.0971 68.2343 39.9306 68.4068 39.776C68.5832 39.6174 68.7773 39.4807 68.989 39.3657C69.2007 39.2507 69.4242 39.1596 69.6594 39.0922C69.8986 39.0248 70.1318 38.9911 70.3592 38.9911C70.5866 38.9911 70.7983 39.0426 70.9944 39.1457C71.1943 39.2448 71.3688 39.3816 71.5178 39.556C71.6667 39.7265 71.7844 39.9286 71.8706 40.1625C71.9569 40.3925 72 40.6383 72 40.8999V45.1933H70.8062V41.0664C70.8062 40.8959 70.7768 40.7354 70.718 40.5847C70.6631 40.4301 70.5866 40.2953 70.4886 40.1804C70.3906 40.0654 70.2749 39.9742 70.1416 39.9068C70.0123 39.8394 69.875 39.8057 69.73 39.8057C69.5653 39.8057 69.3967 39.8295 69.2242 39.8771C69.0556 39.9207 68.8949 39.9822 68.742 40.0614C68.5891 40.1407 68.4499 40.2339 68.3244 40.3409C68.199 40.444 68.099 40.555 68.0245 40.6739V45.1933H66.8307V41.0664C66.8307 40.8959 66.8013 40.7354 66.7425 40.5847C66.6837 40.4301 66.6052 40.2953 66.5072 40.1804C66.4092 40.0654 66.2936 39.9742 66.1603 39.9068C66.027 39.8394 65.8878 39.8057 65.7427 39.8057C65.5898 39.8057 65.431 39.8295 65.2664 39.8771C65.1056 39.9247 64.9468 39.9881 64.79 40.0674C64.6371 40.1467 64.494 40.2398 64.3607 40.3469C64.2274 40.45 64.1176 40.559 64.0314 40.6739V45.1933H62.8317V39.33L63.6903 38.9911Z" fill="white"/>
<path d="M52.8225 16.35C52.5925 15.95 52.1625 15.71 51.7025 15.71C51.2425 15.71 50.8125 15.95 50.5725 16.35C50.5125 16.46 50.4725 16.57 50.4425 16.68H46.5025V12.88C46.5025 12.73 46.4525 12.59 46.3425 12.48L46.1225 12.26L47.0525 10.64H49.8925C49.9225 10.76 49.9725 10.87 50.0325 10.97C50.2625 11.37 50.6925 11.62 51.1525 11.62C51.6125 11.62 52.0425 11.37 52.2725 10.97C52.5025 10.57 52.5025 10.08 52.2725 9.67998C52.0425 9.27998 51.6125 9.02998 51.1525 9.02998C50.6925 9.02998 50.2625 9.27998 50.0325 9.67998C49.9725 9.77998 49.9225 9.88998 49.8925 9.99998H46.6825L45.6525 11.78L45.5725 11.7L42.2125 8.34998L43.8925 5.45998H46.3425C46.3725 5.57998 46.4225 5.68998 46.4825 5.78998C46.7125 6.18998 47.1425 6.42998 47.6025 6.42998C48.0625 6.42998 48.4925 6.18998 48.7225 5.78998C48.9525 5.38998 48.9525 4.89998 48.7225 4.49998C48.4925 4.09998 48.0625 3.84998 47.6025 3.84998C47.1425 3.84998 46.7125 4.09998 46.4825 4.49998C46.4225 4.59998 46.3725 4.70998 46.3425 4.81998H43.5225L41.7425 7.87998L41.7225 7.85998L40.5125 6.65998C40.4125 6.54998 40.2625 6.49998 40.1225 6.49998H31.8825C31.7425 6.49998 31.5925 6.54998 31.4825 6.65998L30.2525 7.88998L28.4725 4.81998H25.6525C25.6225 4.70998 25.5825 4.59998 25.5225 4.49998C25.2825 4.09998 24.8625 3.84998 24.3925 3.84998C23.9225 3.84998 23.5025 4.09998 23.2725 4.49998C23.0425 4.89998 23.0425 5.38998 23.2725 5.78998C23.5025 6.18998 23.9325 6.42998 24.3925 6.42998C24.8525 6.42998 25.2825 6.18998 25.5225 5.78998C25.5825 5.68998 25.6225 5.57998 25.6525 5.45998H28.1025L29.7825 8.35998L26.4325 11.7L26.3425 11.79L25.3125 9.99998H22.1025C22.0725 9.88998 22.0225 9.77998 21.9625 9.67998C21.7325 9.27998 21.3025 9.02998 20.8425 9.02998C20.3825 9.02998 19.9525 9.27998 19.7225 9.67998C19.4925 10.08 19.4925 10.57 19.7225 10.97C19.9525 11.37 20.3825 11.62 20.8425 11.62C21.3025 11.62 21.7325 11.37 21.9625 10.97C22.0225 10.87 22.0725 10.76 22.1025 10.64H24.9425L25.8825 12.26L25.6625 12.48C25.5525 12.59 25.5025 12.73 25.5025 12.88V16.68H21.5525C21.5225 16.57 21.4825 16.46 21.4225 16.35C21.1825 15.95 20.7625 15.71 20.2925 15.71C19.8225 15.71 19.4025 15.95 19.1725 16.35C18.9425 16.75 18.9425 17.24 19.1725 17.64C19.4025 18.04 19.8325 18.29 20.2925 18.29C20.7525 18.29 21.1825 18.04 21.4225 17.64C21.4825 17.54 21.5225 17.43 21.5525 17.32H25.5025V21.11C25.5025 21.26 25.5525 21.4 25.6625 21.52L25.8825 21.74L24.9425 23.35H22.1025C22.0725 23.24 22.0225 23.13 21.9625 23.03C21.7325 22.63 21.3025 22.38 20.8425 22.38C20.3825 22.38 19.9525 22.63 19.7225 23.03C19.4925 23.43 19.4925 23.92 19.7225 24.32C19.9525 24.72 20.3825 24.97 20.8425 24.97C21.3025 24.97 21.7325 24.72 21.9625 24.32C22.0225 24.22 22.0725 24.11 22.1025 23.99H25.3125L26.3525 22.21L26.4325 22.29L29.7825 25.63L28.1025 28.53H25.6525C25.6225 28.42 25.5825 28.31 25.5225 28.21C25.2825 27.81 24.8625 27.56 24.3925 27.56C23.9225 27.56 23.5025 27.81 23.2725 28.21C23.0425 28.61 23.0425 29.1 23.2725 29.5C23.5025 29.9 23.9325 30.15 24.3925 30.15C24.8525 30.15 25.2825 29.9 25.5225 29.5C25.5825 29.4 25.6225 29.29 25.6525 29.17H28.4725L30.2525 26.1L31.4825 27.33C31.5925 27.44 31.7425 27.5 31.8825 27.5H40.1225C40.2625 27.5 40.4125 27.44 40.5125 27.33L41.7425 26.11L43.5225 29.17H46.3425C46.3725 29.29 46.4225 29.4 46.4825 29.5C46.7125 29.9 47.1425 30.15 47.6025 30.15C48.0625 30.15 48.4925 29.9 48.7225 29.5C48.9525 29.1 48.9525 28.61 48.7225 28.21C48.4925 27.81 48.0625 27.56 47.6025 27.56C47.1425 27.56 46.7125 27.81 46.4825 28.21C46.4225 28.31 46.3725 28.42 46.3425 28.53H43.8925L42.2125 25.64L45.5725 22.29L45.6525 22.21L46.6825 23.99H49.8925C49.9225 24.11 49.9725 24.22 50.0325 24.32C50.2625 24.72 50.6925 24.97 51.1525 24.97C51.6125 24.97 52.0425 24.72 52.2725 24.32C52.5025 23.92 52.5025 23.43 52.2725 23.03C52.0425 22.63 51.6125 22.38 51.1525 22.38C50.6925 22.38 50.2625 22.63 50.0325 23.03C49.9725 23.13 49.9225 23.24 49.8925 23.35H47.0525L46.1225 21.74L46.3425 21.52C46.4525 21.4 46.5025 21.26 46.5025 21.11V17.32H50.4425C50.4725 17.43 50.5125 17.54 50.5725 17.64C50.8125 18.04 51.2325 18.29 51.7025 18.29C52.1725 18.29 52.5925 18.04 52.8225 17.64C53.0525 17.24 53.0525 16.75 52.8225 16.35ZM50.7025 10.07C50.7925 9.90998 50.9725 9.80998 51.1525 9.80998C51.3325 9.80998 51.5125 9.90998 51.6025 10.07C51.6925 10.22 51.6925 10.42 51.6025 10.58C51.5125 10.74 51.3325 10.84 51.1525 10.84C50.9725 10.84 50.7925 10.74 50.7025 10.58C50.6125 10.42 50.6125 10.22 50.7025 10.07ZM47.1525 4.88998C47.2425 4.72998 47.4125 4.62998 47.6025 4.62998C47.7825 4.62998 47.9525 4.72998 48.0525 4.88998C48.1425 5.03998 48.1425 5.23998 48.0525 5.39998C47.9525 5.55998 47.7825 5.65998 47.6025 5.65998C47.4125 5.65998 47.2425 5.55998 47.1525 5.39998C47.0625 5.23998 47.0625 5.03998 47.1525 4.88998ZM24.8425 5.39998C24.7525 5.55998 24.5825 5.65998 24.3925 5.65998C24.2125 5.65998 24.0425 5.55998 23.9425 5.39998C23.8525 5.23998 23.8525 5.03998 23.9425 4.88998C24.0425 4.72998 24.2125 4.62998 24.3925 4.62998C24.5825 4.62998 24.7525 4.72998 24.8425 4.88998C24.9325 5.03998 24.9325 5.23998 24.8425 5.39998ZM21.2925 10.58C21.2025 10.74 21.0225 10.84 20.8425 10.84C20.6625 10.84 20.4925 10.74 20.3925 10.58C20.3025 10.42 20.3025 10.22 20.3925 10.07C20.4925 9.90998 20.6625 9.80998 20.8425 9.80998C21.0225 9.80998 21.2025 9.90998 21.2925 10.07C21.3825 10.22 21.3825 10.42 21.2925 10.58ZM20.7425 17.26C20.6525 17.41 20.4825 17.51 20.2925 17.51C20.1125 17.51 19.9425 17.41 19.8425 17.26C19.7525 17.1 19.7525 16.9 19.8425 16.74C19.9425 16.58 20.1125 16.48 20.2925 16.48C20.4825 16.48 20.6525 16.58 20.7425 16.74C20.8325 16.9 20.8325 17.1 20.7425 17.26ZM21.2925 23.93C21.2025 24.09 21.0225 24.19 20.8425 24.19C20.6625 24.19 20.4925 24.09 20.3925 23.93C20.3025 23.77 20.3025 23.57 20.3925 23.42C20.4925 23.26 20.6625 23.16 20.8425 23.16C21.0225 23.16 21.2025 23.26 21.2925 23.42C21.3825 23.57 21.3825 23.77 21.2925 23.93ZM24.8425 29.11C24.7525 29.27 24.5825 29.37 24.3925 29.37C24.2125 29.37 24.0425 29.27 23.9425 29.11C23.8525 28.95 23.8525 28.75 23.9425 28.6C24.0425 28.44 24.2125 28.34 24.3925 28.34C24.5825 28.34 24.7525 28.44 24.8425 28.6C24.9325 28.75 24.9325 28.95 24.8425 29.11ZM47.1525 28.6C47.2425 28.44 47.4125 28.34 47.6025 28.34C47.7825 28.34 47.9525 28.44 48.0525 28.6C48.1425 28.75 48.1425 28.95 48.0525 29.11C47.9525 29.27 47.7825 29.37 47.6025 29.37C47.4125 29.37 47.2425 29.27 47.1525 29.11C47.0625 28.95 47.0625 28.75 47.1525 28.6ZM50.7025 23.42C50.7925 23.26 50.9725 23.16 51.1525 23.16C51.3325 23.16 51.5125 23.26 51.6025 23.42C51.6925 23.57 51.6925 23.77 51.6025 23.93C51.5125 24.09 51.3325 24.19 51.1525 24.19C50.9725 24.19 50.7925 24.09 50.7025 23.93C50.6125 23.77 50.6125 23.57 50.7025 23.42ZM45.3725 20.45V20.88L45.0625 21.2L44.9825 21.28L41.6225 24.62L41.6025 24.64L41.1525 25.09L41.1325 25.11L39.8825 26.37H32.1125L30.8625 25.11L30.8425 25.09L30.3725 24.62L26.9425 21.19L26.6325 20.88V13.12L26.9325 12.81L27.0225 12.72L30.3625 9.36998L30.8325 8.89998L32.1125 7.61998H39.8825L41.1625 8.89998L41.6325 9.36998L44.9825 12.72L45.0625 12.8L45.3725 13.12V20.45ZM52.1525 17.26C52.0525 17.41 51.8825 17.51 51.7025 17.51C51.5125 17.51 51.3425 17.41 51.2525 17.26C51.1625 17.1 51.1625 16.9 51.2525 16.74C51.3425 16.58 51.5125 16.48 51.7025 16.48C51.8825 16.48 52.0525 16.58 52.1525 16.74C52.2425 16.9 52.2425 17.1 52.1525 17.26Z" fill="white"/>
<path d="M41.7325 31.41C41.6125 31.41 41.4925 31.43 41.3825 31.46L39.7225 28.61H32.2725L30.6125 31.46C30.5025 31.43 30.3825 31.41 30.2625 31.41C29.8025 31.41 29.3725 31.66 29.1425 32.06C28.9125 32.46 28.9125 32.95 29.1425 33.35C29.3725 33.75 29.8025 34 30.2625 34C30.7225 34 31.1625 33.75 31.3925 33.35C31.6225 32.95 31.6225 32.46 31.3925 32.06C31.3325 31.96 31.2525 31.86 31.1725 31.78L32.6425 29.25H39.3525L40.8225 31.78C40.7425 31.86 40.6625 31.96 40.6025 32.06C40.3725 32.46 40.3725 32.95 40.6025 33.35C40.8325 33.75 41.2625 34 41.7325 34C42.2025 34 42.6225 33.75 42.8525 33.35C43.0825 32.95 43.0825 32.46 42.8525 32.06C42.6225 31.66 42.1925 31.41 41.7325 31.41ZM30.7125 32.96C30.6225 33.12 30.4525 33.22 30.2625 33.22C30.0825 33.22 29.9125 33.12 29.8225 32.96C29.7325 32.8 29.7325 32.61 29.8225 32.45C29.9125 32.29 30.0825 32.19 30.2625 32.19C30.4525 32.19 30.6225 32.29 30.7125 32.45C30.8025 32.61 30.8025 32.8 30.7125 32.96ZM42.1725 32.96C42.0825 33.12 41.9125 33.22 41.7325 33.22C41.5425 33.22 41.3725 33.12 41.2825 32.96C41.1925 32.8 41.1925 32.61 41.2825 32.45C41.3725 32.29 41.5425 32.19 41.7325 32.19C41.9125 32.19 42.0825 32.29 42.1725 32.45C42.2725 32.61 42.2725 32.8 42.1725 32.96Z" fill="white"/>
<path d="M30.2625 2.58C30.3825 2.58 30.5025 2.57 30.6125 2.53L32.2725 5.39H39.7225L41.3825 2.53C41.4925 2.57 41.6125 2.58 41.7325 2.58C42.1925 2.58 42.6225 2.34 42.8525 1.94C43.0825 1.54 43.0825 1.04 42.8525 0.64C42.6225 0.24 42.1925 0 41.7325 0C41.2725 0 40.8325 0.24 40.6025 0.64C40.3725 1.04 40.3725 1.54 40.6025 1.94C40.6625 2.04 40.7425 2.13 40.8225 2.21L39.3525 4.75H32.6425L31.1725 2.21C31.2525 2.13 31.3325 2.04 31.3925 1.94C31.6225 1.54 31.6225 1.04 31.3925 0.64C31.1625 0.24 30.7325 0 30.2625 0C29.7925 0 29.3725 0.24 29.1425 0.64C28.9125 1.04 28.9125 1.54 29.1425 1.94C29.3725 2.34 29.8025 2.58 30.2625 2.58ZM41.2825 1.03C41.3725 0.87 41.5425 0.78 41.7325 0.78C41.9125 0.78 42.0825 0.87 42.1725 1.03C42.2725 1.19 42.2725 1.39 42.1725 1.55C42.0825 1.71 41.9125 1.8 41.7325 1.8C41.5425 1.8 41.3725 1.71 41.2825 1.55C41.1925 1.39 41.1925 1.19 41.2825 1.03ZM29.8225 1.03C29.9125 0.87 30.0825 0.78 30.2625 0.78C30.4525 0.78 30.6225 0.87 30.7125 1.03C30.8025 1.19 30.8025 1.39 30.7125 1.55C30.6225 1.71 30.4525 1.8 30.2625 1.8C30.0825 1.8 29.9125 1.71 29.8225 1.55C29.7325 1.39 29.7325 1.19 29.8225 1.03Z" fill="white"/>
<path d="M36.5325 24.5V24.48H36.5025L36.5325 24.5Z" fill="white"/>
<path d="M43.5025 13.72L43.4625 13.64C43.4625 13.64 43.4125 13.55 43.3825 13.51C43.2125 13.18 43.0025 12.87 42.7725 12.58C42.6825 12.46 42.5925 12.36 42.4925 12.26C42.1225 11.83 41.6925 11.43 41.2325 11.08C41.1425 11.02 41.0325 10.95 40.9325 10.88C40.6025 10.67 40.2725 10.47 39.9325 10.31C39.8525 10.26 39.7725 10.23 39.6925 10.19C39.2225 9.97 38.7225 9.79 38.2325 9.67C38.2025 9.66 38.1825 9.66 38.1525 9.65C37.9225 9.58 37.6825 9.53 37.4225 9.5H36.5325V24.48H36.5725C36.9125 24.45 37.2525 24.4 37.5925 24.33C37.7725 24.3 37.9425 24.26 38.1125 24.22C38.6325 24.1 39.1525 23.91 39.6525 23.69C39.9325 23.57 40.2125 23.43 40.4525 23.27C40.6925 23.12 40.9525 22.96 41.1925 22.77C41.5625 22.52 41.9225 22.21 42.2125 21.89C42.4025 21.71 42.5725 21.5 42.7325 21.29C42.9425 21.03 43.1225 20.77 43.2725 20.52L43.3025 20.49L43.3325 20.46H41.3825C41.3825 20.46 41.3625 20.48 41.3625 20.49C41.2725 20.6 41.2025 20.68 41.1225 20.77C40.7725 21.17 40.3625 21.52 39.9125 21.83C39.8225 21.89 39.7325 21.95 39.6125 22.02C39.1725 22.29 38.6925 22.52 38.1825 22.67V17.83H42.7225V17.77C42.7425 17.62 42.7525 17.47 42.7625 17.32C42.7725 17.2 42.7725 17.07 42.7725 16.95C42.7725 16.86 42.7725 16.77 42.7625 16.68C42.7525 16.58 42.7425 16.48 42.7325 16.39V16.34H38.1825V11.22C38.6925 11.39 39.1725 11.6 39.6125 11.88C39.8425 12.02 40.0625 12.17 40.2825 12.34C40.5825 12.58 40.8825 12.84 41.1225 13.12C41.2425 13.24 41.3525 13.37 41.4625 13.51C41.5125 13.57 41.5625 13.63 41.6025 13.69V13.72H43.5025Z" fill="white"/>
<path d="M35.4825 24.5L35.5025 24.48H35.4825V24.5Z" fill="white"/>
<path d="M35.4825 23.69V9.5H34.6825C34.4625 9.55 34.2425 9.6 34.0425 9.65C34.0225 9.65 33.9925 9.65 33.9725 9.67C33.5225 9.79 33.0925 9.97 32.6625 10.19C32.5925 10.23 32.5125 10.26 32.4425 10.31C32.1325 10.47 31.8225 10.67 31.5425 10.88C31.4525 10.95 31.3525 11.02 31.2725 11.08C30.8525 11.43 30.4725 11.83 30.1325 12.24C30.0525 12.34 29.9725 12.45 29.8825 12.57C29.6725 12.87 29.4825 13.19 29.3225 13.51C29.3025 13.55 29.2825 13.58 29.2625 13.62C29.1825 13.8 29.1025 13.97 29.0325 14.15C28.9125 14.43 28.8225 14.71 28.7525 15C28.6125 15.45 28.5525 15.91 28.5125 16.38C28.5025 16.47 28.5025 16.57 28.5025 16.68V16.93C28.5025 17.06 28.5025 17.19 28.5125 17.32C28.5225 17.47 28.5325 17.62 28.5525 17.76C28.6025 18.24 28.7025 18.71 28.8325 19.14C28.9025 19.38 28.9825 19.62 29.0825 19.85C29.1725 20.07 29.2725 20.28 29.3925 20.49C29.3925 20.5 29.3925 20.51 29.4025 20.52C29.5525 20.77 29.7025 21.03 29.8825 21.29C30.0225 21.5 30.1825 21.71 30.3525 21.89C30.6325 22.22 30.9325 22.52 31.2725 22.79C31.4925 22.96 31.7225 23.14 31.9425 23.27C32.1725 23.43 32.4025 23.57 32.6625 23.69C33.1125 23.91 33.5725 24.08 34.0425 24.22C34.1925 24.26 34.3525 24.3 34.5125 24.33C34.8125 24.4 35.1125 24.45 35.4325 24.48H35.4825V23.69ZM33.9925 19.85V22.67C33.5425 22.5 33.1125 22.29 32.7125 22.02C32.6225 21.96 32.5225 21.89 32.4425 21.83C32.0425 21.52 31.6725 21.17 31.3525 20.77C31.2825 20.68 31.2125 20.59 31.1425 20.49C31.1425 20.48 31.1325 20.47 31.1225 20.46C30.9825 20.26 30.8525 20.06 30.7425 19.85C30.6025 19.61 30.4825 19.36 30.3825 19.1C30.2025 18.65 30.0825 18.21 30.0325 17.74C30.0125 17.6 30.0025 17.46 29.9925 17.32C29.9925 17.19 29.9925 17.06 29.9925 16.93V16.46H30.0325V16.41C30.0825 15.95 30.1625 15.5 30.3125 15.05C30.4125 14.74 30.5425 14.44 30.6925 14.15C30.7725 13.99 30.8525 13.84 30.9425 13.69C30.9825 13.63 31.0125 13.57 31.0625 13.51C31.1525 13.37 31.2525 13.23 31.3625 13.1C31.5825 12.83 31.8325 12.57 32.1125 12.33C32.3125 12.15 32.5025 12 32.7225 11.86C33.1225 11.58 33.5525 11.36 34.0025 11.21V19.85H33.9925Z" fill="white"/>
</svg>
