<svg width="244" height="90" viewBox="0 0 244 90" fill="none" xmlns="http://www.w3.org/2000/svg">
<rect x="0.502149" y="0.502149" width="242.672" height="88.9494" rx="13.7739" fill="#1B65A7" stroke="#1B65A7" stroke-width="0.995702"/>
<path d="M55.2911 46.2963L55.291 46.304L55.291 46.3117C55.2956 50.6081 57.7276 54.6069 61.4715 56.6116C60.7683 58.6096 59.7945 60.5024 58.5765 62.2363L58.5686 62.2476L58.5609 62.259C57.5692 63.7484 56.6253 65.1056 55.5596 66.1045C54.5164 67.0824 53.431 67.6461 52.1511 67.6669L52.1435 67.6671C50.8257 67.6976 49.9632 67.329 48.8532 66.8546L48.8253 66.8426C47.6716 66.3496 46.3205 65.7853 44.2617 65.7853C42.2018 65.7853 40.8353 66.3068 39.6562 66.8012C39.5796 66.8334 39.5043 66.8651 39.4301 66.8964C38.3804 67.3387 37.5452 67.6907 36.3359 67.7414C35.2023 67.7826 34.1023 67.2177 32.9589 66.1404C31.8144 65.062 30.7698 63.607 29.7423 62.1321C27.7918 59.2698 26.0394 55.2034 25.2953 50.9683C24.5494 46.7225 24.8385 42.4437 26.7929 39.0468L26.7973 39.0392L26.8015 39.0315C28.5937 35.7984 32.034 33.6921 35.7134 33.5703C37.0304 33.5447 38.3513 33.9926 39.7011 34.5277C39.8665 34.5933 40.035 34.6613 40.2047 34.7297C40.6951 34.9275 41.1949 35.129 41.6575 35.2885C42.2799 35.5029 42.9621 35.6888 43.6302 35.6888C44.3122 35.6888 45.0498 35.4614 45.7139 35.2208C46.0778 35.089 46.5094 34.9174 46.9451 34.7442C47.2789 34.6115 47.6151 34.4778 47.9252 34.3603C49.4948 33.7655 51.107 33.2955 52.6811 33.4614L52.7215 33.4657L52.7622 33.4669C55.5097 33.5532 58.1737 34.8319 59.9928 36.892C57.1092 39.1197 55.3383 42.6164 55.2911 46.2963ZM49.5306 27.7215L49.5244 27.7289L49.5184 27.7364C48.2473 29.3235 46.3561 30.3707 44.3535 30.638C44.4715 28.6124 45.2675 26.6345 46.6039 25.1076L46.6042 25.1073C47.9627 23.554 49.7653 22.4775 51.7495 22.0133C51.6465 24.0967 50.8737 26.1028 49.5306 27.7215Z" fill="white" stroke="white" stroke-width="2.2106"/>
<path d="M165.335 42.4726V46.9756H162.523V49.9287H165.335V59.9625C165.335 63.3888 166.878 64.7592 170.763 64.7592C171.445 64.7592 172.095 64.6777 172.664 64.5798V61.6593C172.177 61.7083 171.868 61.7409 171.331 61.7409C169.592 61.7409 168.829 60.9251 168.829 59.0652V49.9287H172.664V46.9756H168.829V42.4726H165.335Z" fill="white"/>
<path d="M182.559 65.004C187.727 65.004 190.896 61.5288 190.896 55.7695C190.896 50.0429 187.711 46.5514 182.559 46.5514C177.391 46.5514 174.205 50.0429 174.205 55.7695C174.205 61.5288 177.374 65.004 182.559 65.004ZM182.559 61.8877C179.52 61.8877 177.813 59.6526 177.813 55.7695C177.813 51.9191 179.52 49.6676 182.559 49.6676C185.582 49.6676 187.304 51.9191 187.304 55.7695C187.304 59.6362 185.582 61.8877 182.559 61.8877Z" fill="white"/>
<path d="M193.607 64.6613H197.102V54.1706C197.102 51.6744 198.971 49.9939 201.62 49.9939C202.237 49.9939 203.277 50.1081 203.57 50.206V46.7472C203.196 46.6493 202.53 46.6004 202.01 46.6004C199.702 46.6004 197.735 47.873 197.232 49.6187H196.972V46.894H193.607V64.6613Z" fill="white"/>
<path d="M212.246 49.5371C214.83 49.5371 216.52 51.3481 216.601 54.138H207.663C207.858 51.3644 209.662 49.5371 212.246 49.5371ZM216.585 59.8647C215.935 61.2515 214.488 62.0183 212.376 62.0183C209.58 62.0183 207.776 60.0441 207.663 56.9279V56.7321H220.16V55.5085C220.16 49.9287 217.186 46.5514 212.262 46.5514C207.273 46.5514 204.104 50.1571 204.104 55.8348C204.104 61.5125 207.208 65.004 212.278 65.004C216.325 65.004 219.153 63.0461 219.949 59.8647H216.585Z" fill="white"/>
<path d="M142.42 58.1002C142.69 62.463 146.312 65.2532 151.702 65.2532C157.463 65.2532 161.067 62.3277 161.067 57.6605C161.067 53.991 159.012 51.9617 154.026 50.7949L151.348 50.1354C148.181 49.3914 146.901 48.3937 146.901 46.6519C146.901 44.4536 148.889 43.0162 151.87 43.0162C154.7 43.0162 156.654 44.4198 157.008 46.6688H160.68C160.461 42.5596 156.856 39.668 151.921 39.668C146.615 39.668 143.077 42.5596 143.077 46.9056C143.077 50.4905 145.082 52.6212 149.478 53.6528L152.611 54.4137C155.829 55.1747 157.244 56.2908 157.244 58.1509C157.244 60.3154 155.02 61.8881 151.988 61.8881C148.737 61.8881 146.48 60.4169 146.16 58.1002H142.42Z" fill="white"/>
<path d="M106.225 46.6004C103.82 46.6004 101.739 47.8077 100.667 49.8308H100.407V46.894H97.0425V70.5675H100.537V61.9693H100.813C101.739 63.8456 103.738 64.955 106.257 64.955C110.727 64.955 113.571 61.4146 113.571 55.7695C113.571 50.1245 110.727 46.6004 106.225 46.6004ZM105.233 61.8062C102.308 61.8062 100.472 59.4894 100.472 55.7858C100.472 52.066 102.308 49.7492 105.25 49.7492C108.207 49.7492 109.979 52.017 109.979 55.7695C109.979 59.5384 108.207 61.8062 105.233 61.8062Z" fill="white"/>
<path d="M125.797 46.6004C123.392 46.6004 121.312 47.8077 120.239 49.8308H119.979V46.894H116.615V70.5675H120.109V61.9693H120.385C121.312 63.8456 123.311 64.955 125.83 64.955C130.299 64.955 133.143 61.4146 133.143 55.7695C133.143 50.1245 130.299 46.6004 125.797 46.6004ZM124.806 61.8062C121.88 61.8062 120.044 59.4894 120.044 55.7858C120.044 52.066 121.88 49.7492 124.822 49.7492C127.78 49.7492 129.551 52.017 129.551 55.7695C129.551 59.5384 127.78 61.8062 124.806 61.8062Z" fill="white"/>
<path d="M90.7734 64.6613H94.7824L86.0064 40.2598H81.9469L73.1709 64.6613H77.0451L79.2855 58.1847H88.5499L90.7734 64.6613ZM83.7829 44.6903H84.0693L87.5898 55.0056H80.2456L83.7829 44.6903Z" fill="white"/>
<path d="M165.335 42.4726V46.9756H162.523V49.9287H165.335V59.9625C165.335 63.3888 166.878 64.7592 170.763 64.7592C171.445 64.7592 172.095 64.6777 172.664 64.5798V61.6593C172.177 61.7083 171.868 61.7409 171.331 61.7409C169.592 61.7409 168.829 60.9251 168.829 59.0652V49.9287H172.664V46.9756H168.829V42.4726H165.335Z" stroke="#1B65A7"/>
<path d="M182.559 65.004C187.727 65.004 190.896 61.5288 190.896 55.7695C190.896 50.0429 187.711 46.5514 182.559 46.5514C177.391 46.5514 174.205 50.0429 174.205 55.7695C174.205 61.5288 177.374 65.004 182.559 65.004ZM182.559 61.8877C179.52 61.8877 177.813 59.6526 177.813 55.7695C177.813 51.9191 179.52 49.6676 182.559 49.6676C185.582 49.6676 187.304 51.9191 187.304 55.7695C187.304 59.6362 185.582 61.8877 182.559 61.8877Z" stroke="#1B65A7"/>
<path d="M193.607 64.6613H197.102V54.1706C197.102 51.6744 198.971 49.9939 201.62 49.9939C202.237 49.9939 203.277 50.1081 203.57 50.206V46.7472C203.196 46.6493 202.53 46.6004 202.01 46.6004C199.702 46.6004 197.735 47.873 197.232 49.6187H196.972V46.894H193.607V64.6613Z" stroke="#1B65A7"/>
<path d="M212.246 49.5371C214.83 49.5371 216.52 51.3481 216.601 54.138H207.663C207.858 51.3644 209.662 49.5371 212.246 49.5371ZM216.585 59.8647C215.935 61.2515 214.488 62.0183 212.376 62.0183C209.58 62.0183 207.776 60.0441 207.663 56.9279V56.7321H220.16V55.5085C220.16 49.9287 217.186 46.5514 212.262 46.5514C207.273 46.5514 204.104 50.1571 204.104 55.8348C204.104 61.5125 207.208 65.004 212.278 65.004C216.325 65.004 219.153 63.0461 219.949 59.8647H216.585Z" stroke="#1B65A7"/>
<path d="M142.42 58.1002C142.69 62.463 146.312 65.2532 151.702 65.2532C157.463 65.2532 161.067 62.3277 161.067 57.6605C161.067 53.991 159.012 51.9617 154.026 50.7949L151.348 50.1354C148.181 49.3914 146.901 48.3937 146.901 46.6519C146.901 44.4536 148.889 43.0162 151.87 43.0162C154.7 43.0162 156.654 44.4198 157.008 46.6688H160.68C160.461 42.5596 156.856 39.668 151.921 39.668C146.615 39.668 143.077 42.5596 143.077 46.9056C143.077 50.4905 145.082 52.6212 149.478 53.6528L152.611 54.4137C155.829 55.1747 157.244 56.2908 157.244 58.1509C157.244 60.3154 155.02 61.8881 151.988 61.8881C148.737 61.8881 146.48 60.4169 146.16 58.1002H142.42Z" stroke="#1B65A7"/>
<path d="M106.225 46.6004C103.82 46.6004 101.739 47.8077 100.667 49.8308H100.407V46.894H97.0425V70.5675H100.537V61.9693H100.813C101.739 63.8456 103.738 64.955 106.257 64.955C110.727 64.955 113.571 61.4146 113.571 55.7695C113.571 50.1245 110.727 46.6004 106.225 46.6004ZM105.233 61.8062C102.308 61.8062 100.472 59.4894 100.472 55.7858C100.472 52.066 102.308 49.7492 105.25 49.7492C108.207 49.7492 109.979 52.017 109.979 55.7695C109.979 59.5384 108.207 61.8062 105.233 61.8062Z" stroke="#1B65A7"/>
<path d="M125.797 46.6004C123.392 46.6004 121.312 47.8077 120.239 49.8308H119.979V46.894H116.615V70.5675H120.109V61.9693H120.385C121.312 63.8456 123.311 64.955 125.83 64.955C130.299 64.955 133.143 61.4146 133.143 55.7695C133.143 50.1245 130.299 46.6004 125.797 46.6004ZM124.806 61.8062C121.88 61.8062 120.044 59.4894 120.044 55.7858C120.044 52.066 121.88 49.7492 124.822 49.7492C127.78 49.7492 129.551 52.017 129.551 55.7695C129.551 59.5384 127.78 61.8062 124.806 61.8062Z" stroke="#1B65A7"/>
<path d="M90.7734 64.6613H94.7824L86.0064 40.2598H81.9469L73.1709 64.6613H77.0451L79.2855 58.1847H88.5499L90.7734 64.6613ZM83.7829 44.6903H84.0693L87.5898 55.0056H80.2456L83.7829 44.6903Z" stroke="#1B65A7"/>
<path d="M73.0742 23.0488V32.6941H76.5431C79.4062 32.6941 81.0641 30.9228 81.0641 27.8414C81.0641 24.8067 79.3929 23.0488 76.5431 23.0488H73.0742ZM74.5657 24.4124H76.3767C78.3675 24.4124 79.546 25.6824 79.546 27.8614C79.546 30.0739 78.3875 31.3305 76.3767 31.3305H74.5657V24.4124Z" fill="white"/>
<path d="M86.1416 32.8345C88.2589 32.8345 89.5573 31.4107 89.5573 29.0512C89.5573 26.7051 88.2523 25.2746 86.1416 25.2746C84.0243 25.2746 82.7193 26.7051 82.7193 29.0512C82.7193 31.4107 84.0176 32.8345 86.1416 32.8345ZM86.1416 31.5578C84.8965 31.5578 84.1974 30.642 84.1974 29.0512C84.1974 27.4737 84.8965 26.5513 86.1416 26.5513C87.38 26.5513 88.0858 27.4737 88.0858 29.0512C88.0858 30.6354 87.38 31.5578 86.1416 31.5578Z" fill="white"/>
<path d="M100.614 25.415H99.1824L97.8907 30.9696H97.7775L96.2861 25.415H94.9145L93.423 30.9696H93.3165L92.0181 25.415H90.5667L92.5641 32.6941H94.0356L95.527 27.3334H95.6402L97.1383 32.6941H98.6231L100.614 25.415Z" fill="white"/>
<path d="M102.262 32.6941H103.694V28.4363C103.694 27.2999 104.366 26.5914 105.425 26.5914C106.484 26.5914 106.99 27.1729 106.99 28.3427V32.6941H108.421V27.9817C108.421 26.2505 107.529 25.2746 105.911 25.2746C104.819 25.2746 104.1 25.7626 103.747 26.5714H103.641V25.415H102.262V32.6941Z" fill="white"/>
<path d="M110.676 32.6941H112.107V22.5742H110.676V32.6941Z" fill="white"/>
<path d="M117.491 32.8345C119.608 32.8345 120.907 31.4107 120.907 29.0512C120.907 26.7051 119.602 25.2746 117.491 25.2746C115.374 25.2746 114.069 26.7051 114.069 29.0512C114.069 31.4107 115.367 32.8345 117.491 32.8345ZM117.491 31.5578C116.246 31.5578 115.547 30.642 115.547 29.0512C115.547 27.4737 116.246 26.5513 117.491 26.5513C118.73 26.5513 119.435 27.4737 119.435 29.0512C119.435 30.6354 118.73 31.5578 117.491 31.5578Z" fill="white"/>
<path d="M125.172 31.6046C124.393 31.6046 123.827 31.2236 123.827 30.5685C123.827 29.9268 124.28 29.5859 125.279 29.5191L127.05 29.4055V30.0137C127.05 30.9161 126.251 31.6046 125.172 31.6046ZM124.806 32.8144C125.758 32.8144 126.55 32.4 126.983 31.6714H127.096V32.6941H128.474V27.721C128.474 26.1837 127.449 25.2746 125.631 25.2746C123.987 25.2746 122.815 26.0767 122.669 27.3267H124.053C124.213 26.812 124.766 26.5179 125.565 26.5179C126.544 26.5179 127.05 26.9524 127.05 27.721V28.3494L125.085 28.463C123.361 28.5699 122.389 29.3253 122.389 30.6354C122.389 31.9655 123.408 32.8144 124.806 32.8144Z" fill="white"/>
<path d="M133.332 32.8144C134.331 32.8144 135.177 32.3398 135.609 31.5444H135.723V32.6941H137.094V22.5742H135.663V26.5714H135.556C135.163 25.7693 134.324 25.2947 133.332 25.2947C131.501 25.2947 130.323 26.7518 130.323 29.0512C130.323 31.3573 131.488 32.8144 133.332 32.8144ZM133.738 26.5847C134.937 26.5847 135.689 27.5406 135.689 29.0579C135.689 30.5819 134.944 31.5244 133.738 31.5244C132.527 31.5244 131.801 30.5953 131.801 29.0512C131.801 27.5205 132.533 26.5847 133.738 26.5847Z" fill="white"/>
<path d="M146.377 32.8345C148.494 32.8345 149.793 31.4107 149.793 29.0512C149.793 26.7051 148.488 25.2746 146.377 25.2746C144.26 25.2746 142.955 26.7051 142.955 29.0512C142.955 31.4107 144.253 32.8345 146.377 32.8345ZM146.377 31.5578C145.132 31.5578 144.433 30.642 144.433 29.0512C144.433 27.4737 145.132 26.5513 146.377 26.5513C147.615 26.5513 148.321 27.4737 148.321 29.0512C148.321 30.6354 147.615 31.5578 146.377 31.5578Z" fill="white"/>
<path d="M151.688 32.6941H153.119V28.4363C153.119 27.2999 153.792 26.5914 154.85 26.5914C155.909 26.5914 156.415 27.1729 156.415 28.3427V32.6941H157.846V27.9817C157.846 26.2505 156.954 25.2746 155.336 25.2746C154.244 25.2746 153.525 25.7626 153.172 26.5714H153.066V25.415H151.688V32.6941Z" fill="white"/>
<path d="M164.439 23.6036V25.4484H163.288V26.6583H164.439V30.769C164.439 32.1727 165.072 32.7342 166.663 32.7342C166.943 32.7342 167.209 32.7008 167.442 32.6607V31.4642C167.243 31.4842 167.116 31.4976 166.896 31.4976C166.184 31.4976 165.871 31.1634 165.871 30.4014V26.6583H167.442V25.4484H165.871V23.6036H164.439Z" fill="white"/>
<path d="M169.364 32.6941H170.795V28.4429C170.795 27.34 171.448 26.5981 172.62 26.5981C173.632 26.5981 174.171 27.1863 174.171 28.3494V32.6941H175.603V27.9951C175.603 26.2639 174.65 25.2813 173.106 25.2813C172.014 25.2813 171.248 25.7693 170.895 26.5847H170.782V22.5742H169.364V32.6941Z" fill="white"/>
<path d="M180.767 26.4978C181.825 26.4978 182.518 27.2398 182.551 28.3828H178.889C178.969 27.2465 179.708 26.4978 180.767 26.4978ZM182.544 30.7289C182.278 31.2971 181.686 31.6112 180.82 31.6112C179.675 31.6112 178.936 30.8025 178.889 29.5258V29.4456H184.009V28.9443C184.009 26.6583 182.791 25.2746 180.773 25.2746C178.729 25.2746 177.431 26.7518 177.431 29.0779C177.431 31.404 178.703 32.8345 180.78 32.8345C182.438 32.8345 183.596 32.0324 183.923 30.7289H182.544Z" fill="white"/>
<path d="M73.0742 23.0488V32.6941H76.5431C79.4062 32.6941 81.0641 30.9228 81.0641 27.8414C81.0641 24.8067 79.3929 23.0488 76.5431 23.0488H73.0742ZM74.5657 24.4124H76.3767C78.3675 24.4124 79.546 25.6824 79.546 27.8614C79.546 30.0739 78.3875 31.3305 76.3767 31.3305H74.5657V24.4124Z" stroke="#1B65A7"/>
<path d="M86.1416 32.8345C88.2589 32.8345 89.5573 31.4107 89.5573 29.0512C89.5573 26.7051 88.2523 25.2746 86.1416 25.2746C84.0243 25.2746 82.7193 26.7051 82.7193 29.0512C82.7193 31.4107 84.0176 32.8345 86.1416 32.8345ZM86.1416 31.5578C84.8965 31.5578 84.1974 30.642 84.1974 29.0512C84.1974 27.4737 84.8965 26.5513 86.1416 26.5513C87.38 26.5513 88.0858 27.4737 88.0858 29.0512C88.0858 30.6354 87.38 31.5578 86.1416 31.5578Z" stroke="#1B65A7"/>
<path d="M100.614 25.415H99.1824L97.8907 30.9696H97.7775L96.2861 25.415H94.9145L93.423 30.9696H93.3165L92.0181 25.415H90.5667L92.5641 32.6941H94.0356L95.527 27.3334H95.6402L97.1383 32.6941H98.6231L100.614 25.415Z" stroke="#1B65A7"/>
<path d="M102.262 32.6941H103.694V28.4363C103.694 27.2999 104.366 26.5914 105.425 26.5914C106.484 26.5914 106.99 27.1729 106.99 28.3427V32.6941H108.421V27.9817C108.421 26.2505 107.529 25.2746 105.911 25.2746C104.819 25.2746 104.1 25.7626 103.747 26.5714H103.641V25.415H102.262V32.6941Z" stroke="#1B65A7"/>
<path d="M110.676 32.6941H112.107V22.5742H110.676V32.6941Z" stroke="#1B65A7"/>
<path d="M117.491 32.8345C119.608 32.8345 120.907 31.4107 120.907 29.0512C120.907 26.7051 119.602 25.2746 117.491 25.2746C115.374 25.2746 114.069 26.7051 114.069 29.0512C114.069 31.4107 115.367 32.8345 117.491 32.8345ZM117.491 31.5578C116.246 31.5578 115.547 30.642 115.547 29.0512C115.547 27.4737 116.246 26.5513 117.491 26.5513C118.73 26.5513 119.435 27.4737 119.435 29.0512C119.435 30.6354 118.73 31.5578 117.491 31.5578Z" stroke="#1B65A7"/>
<path d="M125.172 31.6046C124.393 31.6046 123.827 31.2236 123.827 30.5685C123.827 29.9268 124.28 29.5859 125.279 29.5191L127.05 29.4055V30.0137C127.05 30.9161 126.251 31.6046 125.172 31.6046ZM124.806 32.8144C125.758 32.8144 126.55 32.4 126.983 31.6714H127.096V32.6941H128.474V27.721C128.474 26.1837 127.449 25.2746 125.631 25.2746C123.987 25.2746 122.815 26.0767 122.669 27.3267H124.053C124.213 26.812 124.766 26.5179 125.565 26.5179C126.544 26.5179 127.05 26.9524 127.05 27.721V28.3494L125.085 28.463C123.361 28.5699 122.389 29.3253 122.389 30.6354C122.389 31.9655 123.408 32.8144 124.806 32.8144Z" stroke="#1B65A7"/>
<path d="M133.332 32.8144C134.331 32.8144 135.177 32.3398 135.609 31.5444H135.723V32.6941H137.094V22.5742H135.663V26.5714H135.556C135.163 25.7693 134.324 25.2947 133.332 25.2947C131.501 25.2947 130.323 26.7518 130.323 29.0512C130.323 31.3573 131.488 32.8144 133.332 32.8144ZM133.738 26.5847C134.937 26.5847 135.689 27.5406 135.689 29.0579C135.689 30.5819 134.944 31.5244 133.738 31.5244C132.527 31.5244 131.801 30.5953 131.801 29.0512C131.801 27.5205 132.533 26.5847 133.738 26.5847Z" stroke="#1B65A7"/>
<path d="M146.377 32.8345C148.494 32.8345 149.793 31.4107 149.793 29.0512C149.793 26.7051 148.488 25.2746 146.377 25.2746C144.26 25.2746 142.955 26.7051 142.955 29.0512C142.955 31.4107 144.253 32.8345 146.377 32.8345ZM146.377 31.5578C145.132 31.5578 144.433 30.642 144.433 29.0512C144.433 27.4737 145.132 26.5513 146.377 26.5513C147.615 26.5513 148.321 27.4737 148.321 29.0512C148.321 30.6354 147.615 31.5578 146.377 31.5578Z" stroke="#1B65A7"/>
<path d="M151.688 32.6941H153.119V28.4363C153.119 27.2999 153.792 26.5914 154.85 26.5914C155.909 26.5914 156.415 27.1729 156.415 28.3427V32.6941H157.846V27.9817C157.846 26.2505 156.954 25.2746 155.336 25.2746C154.244 25.2746 153.525 25.7626 153.172 26.5714H153.066V25.415H151.688V32.6941Z" stroke="#1B65A7"/>
<path d="M164.439 23.6036V25.4484H163.288V26.6583H164.439V30.769C164.439 32.1727 165.072 32.7342 166.663 32.7342C166.943 32.7342 167.209 32.7008 167.442 32.6607V31.4642C167.243 31.4842 167.116 31.4976 166.896 31.4976C166.184 31.4976 165.871 31.1634 165.871 30.4014V26.6583H167.442V25.4484H165.871V23.6036H164.439Z" stroke="#1B65A7"/>
<path d="M169.364 32.6941H170.795V28.4429C170.795 27.34 171.448 26.5981 172.62 26.5981C173.632 26.5981 174.171 27.1863 174.171 28.3494V32.6941H175.603V27.9951C175.603 26.2639 174.65 25.2813 173.106 25.2813C172.014 25.2813 171.248 25.7693 170.895 26.5847H170.782V22.5742H169.364V32.6941Z" stroke="#1B65A7"/>
<path d="M180.767 26.4978C181.825 26.4978 182.518 27.2398 182.551 28.3828H178.889C178.969 27.2465 179.708 26.4978 180.767 26.4978ZM182.544 30.7289C182.278 31.2971 181.686 31.6112 180.82 31.6112C179.675 31.6112 178.936 30.8025 178.889 29.5258V29.4456H184.009V28.9443C184.009 26.6583 182.791 25.2746 180.773 25.2746C178.729 25.2746 177.431 26.7518 177.431 29.0779C177.431 31.404 178.703 32.8345 180.78 32.8345C182.438 32.8345 183.596 32.0324 183.923 30.7289H182.544Z" stroke="#1B65A7"/>
</svg>
