<svg width="239" height="90" viewBox="0 0 239 90" fill="none" xmlns="http://www.w3.org/2000/svg">
<rect x="1.1783" y="0.502149" width="236.977" height="88.9494" rx="13.7739" fill="#1B65A7" stroke="#1B65A7" stroke-width="0.995702"/>
<g filter="url(#filter0_ii_251_5181)">
<path d="M23.5833 26.7386C23.5833 25.6807 23.8754 24.8866 24.3465 24.384C24.3532 24.3784 24.3632 24.3788 24.3695 24.3851L45.7679 45.8687C45.853 45.9542 45.9008 46.0698 45.9008 46.1904C45.9008 46.311 45.853 46.4267 45.7679 46.5121L24.3687 67.9949C24.3624 68.0011 24.3526 68.0015 24.3459 67.9962C23.8752 67.4936 23.5833 66.7014 23.5833 65.6423V26.7386Z" fill="white" stroke="#1B65A7" stroke-width="0.331901"/>
<path d="M53.3842 38.9063L53.3841 38.9062C53.353 38.8884 53.3138 38.8937 53.2886 38.9191L46.3656 45.8691C46.2805 45.9545 46.2327 46.0702 46.2327 46.1907C46.2327 46.3113 46.2805 46.427 46.3656 46.5125L53.2864 53.4637C53.3125 53.4899 53.3528 53.4958 53.3853 53.4781C53.3855 53.478 53.3857 53.4779 53.3859 53.4778L61.9578 48.5885L53.3842 38.9063ZM53.3842 38.9063L61.9579 43.7965M53.3842 38.9063L61.9579 43.7965M61.9579 43.7965C61.9579 43.7965 61.9579 43.7965 61.9579 43.7966M61.9579 43.7965L61.9579 43.7966M61.9579 43.7966C63.1515 44.4776 63.7101 45.3519 63.7101 46.1918M61.9579 43.7966L63.7101 46.1918M63.7101 46.1918C63.7101 47.0318 63.1515 47.9065 61.9579 48.5885L63.7101 46.1918Z" fill="white" stroke="#1B65A7" stroke-width="0.331901"/>
<g filter="url(#filter1_i_251_5181)">
<path d="M53.4668 53.6208L46.0654 46.1904L24.229 68.1138C25.035 68.9722 26.3685 69.0777 27.8701 68.2228L53.4668 53.6208Z" fill="white"/>
</g>
<path d="M24.4642 68.1128L46.0654 46.4256L53.1961 53.5841L27.788 68.0786C26.3985 68.8697 25.2093 68.7929 24.4642 68.1128Z" stroke="#1B65A7" stroke-width="0.331901"/>
<path d="M27.7879 24.3047L27.7879 24.3047L53.1961 38.7975L46.0671 45.9577L24.4642 24.2705C25.2094 23.5902 26.3986 23.5121 27.7879 24.3047Z" fill="white" stroke="#1B65A7" stroke-width="0.331901"/>
</g>
<path d="M118.868 48.3189C114.976 48.3189 111.803 51.2781 111.803 55.3538C111.803 59.4046 114.976 62.3886 118.868 62.3886C122.762 62.3886 125.935 59.4046 125.935 55.3538C125.933 51.2781 122.761 48.3189 118.868 48.3189ZM118.868 59.6197C116.735 59.6197 114.896 57.8614 114.896 55.3554C114.896 52.823 116.737 51.0912 118.868 51.0912C121.001 51.0912 122.84 52.823 122.84 55.3554C122.84 57.8597 121.001 59.6197 118.868 59.6197ZM103.454 48.3189C99.5619 48.3189 96.3894 51.2781 96.3894 55.3538C96.3894 59.4046 99.5619 62.3886 103.454 62.3886C107.348 62.3886 110.521 59.4046 110.521 55.3538C110.521 51.2781 107.348 48.3189 103.454 48.3189ZM103.454 59.6197C101.321 59.6197 99.4825 57.8614 99.4825 55.3554C99.4825 52.823 101.323 51.0912 103.454 51.0912C105.587 51.0912 107.426 52.823 107.426 55.3554C107.428 57.8597 105.587 59.6197 103.454 59.6197ZM85.121 50.4792V53.4631H92.267C92.0535 55.142 91.4941 56.3677 90.6402 57.2196C89.6009 58.2584 87.9741 59.4046 85.121 59.4046C80.7222 59.4046 77.2833 55.8599 77.2833 51.4634C77.2833 47.0668 80.7222 43.5221 85.121 43.5221C87.4942 43.5221 89.2269 44.455 90.5061 45.6542L92.6129 43.5485C90.8255 41.8432 88.454 40.5381 85.121 40.5381C79.0954 40.5381 74.0297 45.4408 74.0297 51.4634C74.0297 57.4859 79.0954 62.3886 85.121 62.3886C88.3729 62.3886 90.8272 61.3217 92.7452 59.3236C94.7179 57.3519 95.3319 54.5797 95.3319 52.3417C95.3319 51.6503 95.2789 51.0101 95.1714 50.4775L85.121 50.4792ZM160.102 52.7965C159.517 51.2252 157.729 48.3189 154.077 48.3189C150.451 48.3189 147.437 51.1706 147.437 55.3538C147.437 59.2971 150.424 62.3886 154.423 62.3886C157.648 62.3886 159.515 60.4169 160.289 59.2707L157.89 57.6712C157.09 58.8439 155.997 59.6164 154.423 59.6164C152.851 59.6164 151.73 58.8968 151.01 57.4842L160.422 53.5938L160.102 52.7965ZM150.504 55.142C150.424 52.4227 152.611 51.0383 154.184 51.0383C155.411 51.0383 156.45 51.6519 156.798 52.5302L150.504 55.142ZM142.853 61.9635H145.945V41.2857H142.853V61.9635ZM137.786 49.892H137.68C136.986 49.0649 135.653 48.3189 133.974 48.3189C130.454 48.3189 127.229 51.4104 127.229 55.3819C127.229 59.3252 130.454 62.3903 133.974 62.3903C135.654 62.3903 136.986 61.6443 137.68 60.7924H137.786V61.8047C137.786 64.4959 136.346 65.935 134.027 65.935C132.134 65.935 130.961 64.577 130.481 63.4307L127.788 64.5505C128.561 66.4147 130.613 68.7072 134.027 68.7072C137.653 68.7072 140.72 66.5751 140.72 61.378V48.7473H137.787L137.786 49.892ZM134.241 59.6197C132.108 59.6197 130.322 57.8333 130.322 55.3819C130.322 52.9024 132.108 51.0912 134.241 51.0912C136.346 51.0912 137.999 52.9024 137.999 55.3819C137.999 57.8333 136.346 59.6197 134.241 59.6197ZM174.59 41.2857H167.191V61.9635H170.277V54.1297H174.588C178.01 54.1297 181.377 51.6536 181.377 47.7086C181.377 43.7636 178.012 41.2857 174.59 41.2857ZM174.669 51.2516H170.277V44.1639H174.669C176.978 44.1639 178.288 46.0743 178.288 47.7086C178.288 49.3097 176.978 51.2516 174.669 51.2516ZM193.754 48.2825C191.518 48.2825 189.203 49.2667 188.245 51.4485L190.985 52.5914C191.571 51.4485 192.663 51.0746 193.807 51.0746C195.404 51.0746 197.027 52.0324 197.054 53.7344V53.9478C196.494 53.6286 195.296 53.1505 193.833 53.1505C190.879 53.1505 187.871 54.7732 187.871 57.8051C187.871 60.5724 190.293 62.3539 193.007 62.3539C195.083 62.3539 196.228 61.4226 196.946 60.3309H197.052V61.9271H200.034V53.9991C200.036 50.3303 197.292 48.2825 193.754 48.2825ZM193.38 59.6147C192.37 59.6147 190.959 59.1086 190.959 57.8581C190.959 56.2619 192.716 55.6499 194.234 55.6499C195.589 55.6499 196.23 55.9426 197.054 56.3413C196.814 58.2584 195.164 59.6147 193.38 59.6147ZM210.894 48.7341L207.354 57.6993H207.248L203.574 48.7341H200.248L205.757 61.2638L202.616 68.2342H205.836L214.328 48.7341H210.894ZM183.081 61.9635H186.168V41.2857H183.081V61.9635Z" fill="white"/>
<path d="M84.7362 29.0555C84.7362 30.4166 84.3262 31.4998 83.5044 32.3087C82.5719 33.2701 81.3549 33.7509 79.8602 33.7509C78.4283 33.7509 77.2097 33.2636 76.2094 32.2892C75.2074 31.3131 74.7064 30.1047 74.7064 28.6625C74.7064 27.2187 75.2074 26.0103 76.2094 25.0358C77.2097 24.0597 78.4283 23.5725 79.8602 23.5725C80.5712 23.5725 81.2508 23.7089 81.8956 23.9802C82.5421 24.253 83.0596 24.6152 83.4465 25.0683L82.5752 25.9259C81.9188 25.1544 81.0143 24.7695 79.8586 24.7695C78.8136 24.7695 77.9108 25.13 77.1486 25.8512C76.3863 26.5723 76.006 27.5094 76.006 28.6609C76.006 29.8124 76.3863 30.7495 77.1486 31.4706C77.9108 32.1917 78.8136 32.5523 79.8586 32.5523C80.9664 32.5523 81.8906 32.1901 82.6297 31.4641C83.1092 30.9915 83.387 30.3337 83.4614 29.4908H79.8586V28.3198H84.6651C84.7147 28.5748 84.7362 28.82 84.7362 29.0555Z" fill="white"/>
<path d="M92.3588 24.9856H87.8416V28.0747H91.9156V29.2457H87.8416V32.3347H92.3588V33.5333H86.5668V23.7886H92.3588V24.9856Z" fill="white"/>
<path d="M97.7339 33.5333H96.4591V24.9856H93.688V23.7886H100.505V24.9856H97.7339V33.5333Z" fill="white"/>
<path d="M105.437 33.5333V23.7886H106.712V33.5333H105.437Z" fill="white"/>
<path d="M112.365 33.5333H111.091V24.9856H108.319V23.7886H115.137V24.9856H112.365V33.5333Z" fill="white"/>
<path d="M128.041 32.2746C127.066 33.2588 125.854 33.751 124.404 33.751C122.954 33.751 121.742 33.2588 120.768 32.2746C119.792 31.2904 119.306 30.0853 119.306 28.661C119.306 27.2366 119.792 26.0315 120.768 25.0473C121.742 24.0631 122.954 23.5693 124.404 23.5693C125.846 23.5693 127.056 24.0647 128.035 25.0538C129.014 26.0429 129.503 27.2447 129.503 28.661C129.503 30.0853 129.015 31.2904 128.041 32.2746ZM121.709 31.4577C122.443 32.1886 123.341 32.5524 124.404 32.5524C125.467 32.5524 126.366 32.1869 127.099 31.4577C127.833 30.7268 128.202 29.7946 128.202 28.661C128.202 27.5273 127.833 26.5951 127.099 25.8642C126.366 25.1334 125.467 24.7696 124.404 24.7696C123.341 24.7696 122.443 25.135 121.709 25.8642C120.976 26.5951 120.608 27.5273 120.608 28.661C120.608 29.7946 120.976 30.7268 121.709 31.4577Z" fill="white"/>
<path d="M131.292 33.5333V23.7886H132.843L137.665 31.3684H137.719L137.665 29.4909V23.7886H138.939V33.5333H137.608L132.564 25.5849H132.509L132.564 27.4624V33.5333H131.292Z" fill="white"/>
<path d="M84.7362 29.0555C84.7362 30.4166 84.3262 31.4998 83.5044 32.3087C82.5719 33.2701 81.3549 33.7509 79.8602 33.7509C78.4283 33.7509 77.2097 33.2636 76.2094 32.2892C75.2074 31.3131 74.7064 30.1047 74.7064 28.6625C74.7064 27.2187 75.2074 26.0103 76.2094 25.0358C77.2097 24.0597 78.4283 23.5725 79.8602 23.5725C80.5712 23.5725 81.2508 23.7089 81.8956 23.9802C82.5421 24.253 83.0596 24.6152 83.4465 25.0683L82.5752 25.9259C81.9188 25.1544 81.0143 24.7695 79.8586 24.7695C78.8136 24.7695 77.9108 25.13 77.1486 25.8512C76.3863 26.5723 76.006 27.5094 76.006 28.6609C76.006 29.8124 76.3863 30.7495 77.1486 31.4706C77.9108 32.1917 78.8136 32.5523 79.8586 32.5523C80.9664 32.5523 81.8906 32.1901 82.6297 31.4641C83.1092 30.9915 83.387 30.3337 83.4614 29.4908H79.8586V28.3198H84.6651C84.7147 28.5748 84.7362 28.82 84.7362 29.0555Z" stroke="white" stroke-width="0.0678775" stroke-miterlimit="10"/>
<path d="M92.3588 24.9856H87.8416V28.0747H91.9156V29.2457H87.8416V32.3347H92.3588V33.5333H86.5668V23.7886H92.3588V24.9856Z" stroke="white" stroke-width="0.0678775" stroke-miterlimit="10"/>
<path d="M97.7339 33.5333H96.4591V24.9856H93.688V23.7886H100.505V24.9856H97.7339V33.5333Z" stroke="white" stroke-width="0.0678775" stroke-miterlimit="10"/>
<path d="M105.437 33.5333V23.7886H106.712V33.5333H105.437Z" stroke="white" stroke-width="0.0678775" stroke-miterlimit="10"/>
<path d="M112.365 33.5333H111.091V24.9856H108.319V23.7886H115.137V24.9856H112.365V33.5333Z" stroke="white" stroke-width="0.0678775" stroke-miterlimit="10"/>
<path d="M128.041 32.2746C127.066 33.2588 125.854 33.751 124.404 33.751C122.954 33.751 121.742 33.2588 120.768 32.2746C119.792 31.2904 119.306 30.0853 119.306 28.661C119.306 27.2366 119.792 26.0315 120.768 25.0473C121.742 24.0631 122.954 23.5693 124.404 23.5693C125.846 23.5693 127.056 24.0647 128.035 25.0538C129.014 26.0429 129.503 27.2447 129.503 28.661C129.503 30.0853 129.015 31.2904 128.041 32.2746ZM121.709 31.4577C122.443 32.1886 123.341 32.5524 124.404 32.5524C125.467 32.5524 126.366 32.1869 127.099 31.4577C127.833 30.7268 128.202 29.7946 128.202 28.661C128.202 27.5273 127.833 26.5951 127.099 25.8642C126.366 25.1334 125.467 24.7696 124.404 24.7696C123.341 24.7696 122.443 25.135 121.709 25.8642C120.976 26.5951 120.608 27.5273 120.608 28.661C120.608 29.7946 120.976 30.7268 121.709 31.4577Z" stroke="white" stroke-width="0.0678775" stroke-miterlimit="10"/>
<path d="M131.292 33.5333V23.7886H132.843L137.665 31.3684H137.719L137.665 29.4909V23.7886H138.939V33.5333H137.608L132.564 25.5849H132.509L132.564 27.4624V33.5333H131.292Z" stroke="white" stroke-width="0.0678775" stroke-miterlimit="10"/>
<defs>
<filter id="filter0_ii_251_5181" x="23.4174" y="23.5693" width="40.4587" height="45.2441" filterUnits="userSpaceOnUse" color-interpolation-filters="sRGB">
<feFlood flood-opacity="0" result="BackgroundImageFix"/>
<feBlend mode="normal" in="SourceGraphic" in2="BackgroundImageFix" result="shape"/>
<feColorMatrix in="SourceAlpha" type="matrix" values="0 0 0 0 0 0 0 0 0 0 0 0 0 0 0 0 0 0 127 0" result="hardAlpha"/>
<feOffset dy="-0.263861"/>
<feComposite in2="hardAlpha" operator="arithmetic" k2="-1" k3="1"/>
<feColorMatrix type="matrix" values="0 0 0 0 0 0 0 0 0 0 0 0 0 0 0 0 0 0 0.12 0"/>
<feBlend mode="normal" in2="shape" result="effect1_innerShadow_251_5181"/>
<feColorMatrix in="SourceAlpha" type="matrix" values="0 0 0 0 0 0 0 0 0 0 0 0 0 0 0 0 0 0 127 0" result="hardAlpha"/>
<feOffset dy="0.263861"/>
<feComposite in2="hardAlpha" operator="arithmetic" k2="-1" k3="1"/>
<feColorMatrix type="matrix" values="0 0 0 0 1 0 0 0 0 1 0 0 0 0 1 0 0 0 0.25 0"/>
<feBlend mode="normal" in2="effect1_innerShadow_251_5181" result="effect2_innerShadow_251_5181"/>
</filter>
<filter id="filter1_i_251_5181" x="24.229" y="46.1904" width="29.2378" height="22.623" filterUnits="userSpaceOnUse" color-interpolation-filters="sRGB">
<feFlood flood-opacity="0" result="BackgroundImageFix"/>
<feBlend mode="normal" in="SourceGraphic" in2="BackgroundImageFix" result="shape"/>
<feColorMatrix in="SourceAlpha" type="matrix" values="0 0 0 0 0 0 0 0 0 0 0 0 0 0 0 0 0 0 127 0" result="hardAlpha"/>
<feOffset dy="-0.263861"/>
<feComposite in2="hardAlpha" operator="arithmetic" k2="-1" k3="1"/>
<feColorMatrix type="matrix" values="0 0 0 0 0 0 0 0 0 0 0 0 0 0 0 0 0 0 0.08 0"/>
<feBlend mode="normal" in2="shape" result="effect1_innerShadow_251_5181"/>
</filter>
</defs>
</svg>
