<svg width="32" height="32" viewBox="0 0 32 32" fill="none" xmlns="http://www.w3.org/2000/svg">
<path fill-rule="evenodd" clip-rule="evenodd" d="M16 0C7.16344 0 0 7.16344 0 16C0 24.8366 7.16344 32 16 32C24.8366 32 32 24.8366 32 16C32 7.16344 24.8366 0 16 0ZM12.4823 7.51835C13.3926 7.47693 13.6834 7.4668 16.0009 7.4668H15.9983C18.3165 7.4668 18.6063 7.47693 19.5165 7.51835C20.425 7.55995 21.0454 7.70378 21.5895 7.9148C22.1512 8.13258 22.6259 8.42414 23.1006 8.89881C23.5753 9.37313 23.8668 9.84922 24.0855 10.4105C24.2953 10.9531 24.4393 11.5732 24.4819 12.4816C24.5228 13.3918 24.5335 13.6827 24.5335 16.0002C24.5335 18.3178 24.5228 18.6079 24.4819 19.5181C24.4393 20.4262 24.2953 21.0465 24.0855 21.5893C23.8668 22.1503 23.5753 22.6264 23.1006 23.1007C22.6264 23.5754 22.1511 23.8677 21.59 24.0856C21.047 24.2967 20.4262 24.4405 19.5178 24.4821C18.6076 24.5235 18.3176 24.5336 15.9999 24.5336C13.6825 24.5336 13.3919 24.5235 12.4816 24.4821C11.5733 24.4405 10.9531 24.2967 10.4101 24.0856C9.84924 23.8677 9.37315 23.5754 8.89901 23.1007C8.42452 22.6264 8.13296 22.1503 7.91482 21.5891C7.70398 21.0465 7.56015 20.4264 7.51837 19.5179C7.47713 18.6077 7.46682 18.3178 7.46682 16.0002C7.46682 13.6827 7.47748 13.3917 7.5182 12.4814C7.55908 11.5733 7.70309 10.9531 7.91464 10.4103C8.13331 9.84922 8.42487 9.37313 8.89954 8.89881C9.37386 8.42432 9.84995 8.13276 10.4112 7.9148C10.9538 7.70378 11.5739 7.55995 12.4823 7.51835Z" fill="white"/>
<path fill-rule="evenodd" clip-rule="evenodd" d="M15.236 9.00409C15.3846 9.00385 15.5445 9.00393 15.7171 9.004L16.0015 9.00409C18.2799 9.00409 18.55 9.01226 19.4497 9.05315C20.2817 9.0912 20.7333 9.23022 21.0341 9.34702C21.4323 9.50169 21.7162 9.68658 22.0147 9.98525C22.3134 10.2839 22.4983 10.5684 22.6533 10.9666C22.7701 11.267 22.9093 11.7186 22.9472 12.5506C22.988 13.4502 22.9969 13.7204 22.9969 15.9978C22.9969 18.2751 22.988 18.5453 22.9472 19.4449C22.9091 20.2769 22.7701 20.7285 22.6533 21.0289C22.4986 21.4271 22.3134 21.7107 22.0147 22.0092C21.716 22.3079 21.4325 22.4928 21.0341 22.6474C20.7336 22.7648 20.2817 22.9034 19.4497 22.9415C18.5501 22.9824 18.2799 22.9913 16.0015 22.9913C13.7229 22.9913 13.4528 22.9824 12.5533 22.9415C11.7213 22.9031 11.2697 22.7641 10.9687 22.6472C10.5705 22.4926 10.2861 22.3077 9.98738 22.009C9.68871 21.7104 9.50382 21.4266 9.3488 21.0282C9.232 20.7278 9.09279 20.2762 9.05493 19.4442C9.01404 18.5446 9.00586 18.2744 9.00586 15.9956C9.00586 13.7168 9.01404 13.448 9.05493 12.5485C9.09297 11.7165 9.232 11.2649 9.3488 10.9641C9.50346 10.5659 9.68871 10.2814 9.98738 9.98276C10.2861 9.68409 10.5705 9.4992 10.9687 9.34418C11.2695 9.22684 11.7213 9.08818 12.5533 9.04995C13.3405 9.0144 13.6456 9.00373 15.236 9.00195V9.00409ZM20.5562 10.4203C19.9909 10.4203 19.5322 10.8784 19.5322 11.4439C19.5322 12.0093 19.9909 12.4679 20.5562 12.4679C21.1216 12.4679 21.5802 12.0093 21.5802 11.4439C21.5802 10.8786 21.1216 10.4199 20.5562 10.4199V10.4203ZM11.6191 15.9985C11.6191 13.5784 13.5812 11.6163 16.0012 11.6162C18.4213 11.6162 20.383 13.5784 20.383 15.9985C20.383 18.4186 18.4215 20.3799 16.0014 20.3799C13.5813 20.3799 11.6191 18.4186 11.6191 15.9985Z" fill="white"/>
<path fill-rule="evenodd" clip-rule="evenodd" d="M16.0007 13.1553C17.5716 13.1553 18.8452 14.4287 18.8452 15.9997C18.8452 17.5706 17.5716 18.8442 16.0007 18.8442C14.4297 18.8442 13.1562 17.5706 13.1562 15.9997C13.1562 14.4287 14.4297 13.1553 16.0007 13.1553V13.1553Z" fill="white"/>
</svg>
