<svg width="65" height="64" viewBox="0 0 65 64" fill="none" xmlns="http://www.w3.org/2000/svg">
<path fill-rule="evenodd" clip-rule="evenodd" d="M56.0667 17.76L42.9467 4.56L41.5467 4H10.6667L8.66669 6V28H12.6667V8H36.6667V22L38.6667 24H52.6667V28H56.6667V19.2L56.0667 17.76ZM40.6667 20V8L52.6667 20H40.6667ZM10.6667 32L8.66669 34V58L10.6667 60H54.6667L56.6667 58V34L54.6667 32H10.6667ZM52.6667 52V56H12.6667V36H52.6667V52ZM20.6667 48H19.3867V52H16.6667V40H20.9067C23.9067 40 25.4267 41.44 25.4267 44C25.4344 44.5441 25.324 45.0833 25.103 45.5806C24.882 46.0778 24.5557 46.5212 24.1467 46.88C23.1554 47.6527 21.9226 48.0495 20.6667 48ZM20.4267 42.2H19.3867V45.92H20.4267C21.8667 45.92 22.5867 45.28 22.5867 44.04C22.5867 42.8 21.8667 42.2 20.4267 42.2ZM36.6667 50.32C37.2574 49.7382 37.7194 49.0387 38.0225 48.2669C38.3257 47.4952 38.4634 46.6684 38.4267 45.84C38.4267 41.84 36.3067 40 32.0267 40H27.7867V52H32.0267C32.8728 52.041 33.7186 51.9136 34.5151 51.6252C35.3116 51.3368 36.0429 50.8932 36.6667 50.32ZM30.4667 49.8V42.2H31.7867C32.2969 42.1676 32.8083 42.2395 33.2897 42.4115C33.7712 42.5834 34.2125 42.8517 34.5867 43.2C34.9277 43.5547 35.1923 43.9755 35.3643 44.4364C35.5363 44.8974 35.612 45.3887 35.5867 45.88C35.6466 46.9344 35.2871 47.9696 34.5867 48.76C34.2205 49.1104 33.7872 49.3832 33.3129 49.5619C32.8386 49.7406 32.3331 49.8216 31.8267 49.8H30.4667ZM48.2667 47.36H44.3867V52H41.6667V40H48.6267V42.2H44.3867V45.16H48.2667V47.36Z" fill="black"/>
</svg>
