<svg width="26" height="27" viewBox="0 0 26 27" fill="none" xmlns="http://www.w3.org/2000/svg">
<path d="M9.75873 1.84607C9.80943 0.878678 11.0684 0.541331 11.596 1.35377L15.7622 7.76911C15.9982 8.13245 16.4412 8.30253 16.8597 8.1904L24.2485 6.21058C25.1842 5.95986 25.8941 7.05299 25.2844 7.80583L20.4705 13.7505C20.1979 14.0872 20.173 14.5612 20.409 14.9245L24.5751 21.3398C25.1027 22.1523 24.2825 23.1652 23.3781 22.8181L16.2368 20.0768C15.8323 19.9215 15.3739 20.0443 15.1012 20.381L10.2873 26.3257C9.67767 27.0786 8.46083 26.6115 8.51153 25.6441L8.91187 18.0051C8.93454 17.5725 8.67606 17.1745 8.27161 17.0192L1.13026 14.2779C0.225882 13.9308 0.294097 12.6291 1.22981 12.3784L8.61858 10.3986C9.03705 10.2865 9.33572 9.91764 9.35839 9.48501L9.75873 1.84607Z" fill="url(#paint0_linear_251_4350)"/>
<defs>
<linearGradient id="paint0_linear_251_4350" x1="5.88236" y1="10.8426" x2="33.3076" y2="25.1473" gradientUnits="userSpaceOnUse">
<stop stop-color="#0732B3"/>
<stop offset="0.958493" stop-color="white"/>
</linearGradient>
</defs>
</svg>
